<?xml version="1.0" encoding="utf-8"?>
<!-- Generator: Adobe Illustrator 23.1.0, SVG Export Plug-In . SVG Version: 6.00 Build 0)  -->
<svg version="1.1" id="Layer_1" xmlns="http://www.w3.org/2000/svg" xmlns:xlink="http://www.w3.org/1999/xlink" x="0px" y="0px"
	 viewBox="0 0 1595.2 584.5" style="enable-background:new 0 0 1595.2 584.5;" xml:space="preserve">
<style type="text/css">
	.st0{fill:none;stroke:#C41230;stroke-width:0.29;stroke-miterlimit:3.86;}
	.st1{fill:#C41230;}
	.st2{fill:#B78433;}
</style>
<line class="st0" x1="1036.4" y1="17.5" x2="1036.4" y2="569.5"/>
<path class="st1" d="M1385.6,86c-0.7-0.2-1.4-1-2.2-1.3c-2-0.8-4.1-1.4-5.3-2.4c0,0-0.1-0.5-0.4-0.9c0.2,0,0.2,0.2,0.4,0.2
	c-0.1-0.5-0.6-0.5-0.7,0c-0.4-0.2,0-0.4,0-0.7c-0.2,0.1-0.4,0.2-0.4,0.4c-0.4-0.1,0-0.4,0-0.6c-0.2,0.1-0.4,0.2-0.4,0.4
	c-0.4-0.2,0-0.4,0-0.7c-0.2,0.1-0.4,0.2-0.4,0.5c-0.4-0.2,0-0.4,0-0.7c-0.9,0.6-0.2,0-1.3,0c0.1-0.5,0.4,0.3,0.7-0.2
	c-0.3-0.5-0.8,0.3-1.3-0.2c1.1-0.5-0.9,0-0.2-0.7c-0.3,0.2-0.8,0.3-0.3-0.1c-0.5,0.3-1.3-0.2-2.2-0.7c0.2-0.7,0.4-0.3,0.7,0
	c-0.2-0.9-1-0.5-0.9-0.7c-1-1.9,1-7.9,1.5-8.6c0,0,0.8-0.1,0.5-1.1c0.3-0.3,0.3-0.1,0.7,0c0.6-3.5,2.9-6.5,4.2-9.3
	c0.3-0.7,0.3-1.6,0.6-2.2l0.5-0.2c1.9-6.9,7-12.3,10.6-20.9c0.3-0.3,0.3-0.1,0.6,0c0-2.3,3.6-6.6,3.8-6.8c2-3.6,5.5-9.3,8.1-13.7
	c1.4-2.2,2.6-5.7,4.8-6c0.3-0.2-0.1-0.4,0.4-0.7c0.4,0.3-0.3,0.5,0.7,0.2c0-0.2-0.1-0.2-0.2-0.2c0.1-0.2,0.9-0.3,0.4,0.2
	c4,1.5,7.9,4.2,12.1,6.4c14.6,7.5,31.2,15.3,43.9,26c-0.2,7.5-4.3,13.6-7.3,20.3c-4.5,10.1-10.6,22.1-15.4,32.2
	c-2.6,5.4-5.2,11.3-8.6,15.2c-1.2,1.4-3.5,3.2-5.1,3.1c-3.1-0.2-7.4-5.9-9.7-7.5c-0.1,0.9-0.8-0.4-1.1-0.7c-0.6-0.5-0.9-0.2-1.1-0.4
	c-0.1-0.2,0.1-0.5,0-0.7l0,0l-0.1-0.1l0.1,0.1l0,0c0,0.3-1.2,0.4-1.3-0.2l0.1-0.2l0.4,0.1l-0.4-0.1c-1.1-0.5-2.2-1.6-3.6-2
	c0.5-0.7-0.4,0.1-0.4-0.9c-0.2,0.1-0.4,0.2-0.7,0.2c-4.4-2.9-10.4-5.8-15.6-8.6c-2.9-1.5-5.5-3.6-7.9-4.6c-0.1,0-0.4,0.3-0.7,0.2
	C1385.8,86,1386.6,86.2,1385.6,86"/>
<path class="st1" d="M1091.3,228.1c1.1-4.3,2.5-10.8,5.8-10.8c3.5,0,3.9,5.9,3.3,9.5c-1.4,8.8-1.9,14.2-2.4,23.6
	c-0.2,4.1,0,8.9-0.5,11.9c-1.1,8-1.6,15.8-1.3,24.3c0.2,6.7,0,15.4,0.9,23.2c0.9,7.9,1.9,15.7,3.1,23.4c1.2,7.6,2.2,15.2,4,22.5
	c1.8,7.5,3,15,4.6,22.3c4.8,21.8,12,41,23.1,58.2c7.3,11.2,14.6,21.6,24.3,30.2c4.7,4.2,9.4,9,14.8,12.6c5.4,3.6,11.3,6.8,17.4,9.9
	c9,4.6,19.9,7.5,30.2,9.9c2,0.5,4.1,0.2,6.4,0.5c1.7,0.1,3.3,0.8,4.9,0.9c2.3,0.1,6.9-0.4,11.7-0.4c4.3,0,6.6-0.2,11.3-0.9
	c0.2,0,0.5-0.5,0.5-0.2c15.1-2.1,28.6-6,40.5-11.7c9-4.3,17.2-9.9,24.9-15.4c2.6-1.9,4.3-4.2,6.6-6.9c8.5-9.5,17-19.2,23.4-30.6
	c6.3-11.3,11.3-24.1,15.7-38.1c4.3-13.9,8.5-27.6,11.9-41.7c3.2-13.6,5.7-28.9,7.5-43.2c0.8-6.8,0.2-15.7,0.9-23.6
	c0.6-7,0.5-13.9,0.9-22c0.2-3.8,0.4-7.5,0.2-11.5c-0.1-3.9-0.5-8-0.2-11.9c0.6-8.4-0.3-17,2.9-23.2c4-8,13.9-10.4,24.2-7.9
	c5.8,1.4,12.3,3.7,17.2,3.5c2.8-0.1,6.3-7.5,8.2-10.4c2.6-4.1,4.9-7.5,7.1-11c4.9-8,9.8-14.5,13.7-22.3c4-8,8.4-15.9,13.2-22.9
	c9.8-14.2,18.8-29.3,28.7-43.4c4.7-6.6,11.2-12.3,17.2-18.7c2.8-3,6-5.6,10.2-7.9c3.8-2.1,7.3-5.1,11.2-6.8
	c8.5-3.7,19.1-5.1,28.4-0.9c3,1.4,5.2,3.9,7.7,6.2c4.8,4.4,9.4,9,11,16.3c0.8,3.5,1.8,7.2,2.4,10.8c1.8,10.8,0.1,21.4-1.1,33.1
	c-0.4,3.5-1.4,6.7-2.2,9.7c-1.9,7-4.3,14.1-6.4,21.2c-2,7-5,13.5-7.7,19.6c-1.5,3.4-2.3,6.8-3.8,9.9c-6.9,15.3-17.2,28.7-28.2,40.4
	c-4.4,4.6-9.3,8.7-14.3,13c-5.1,4.3-10.2,8.3-15.9,11.7c-5.6,3.3-12.3,5.8-18.9,8.3c-13,4.9-27.9,9.5-43,11
	c-12.4,1.3-24.1,1.2-34.2-0.2c-3.5-0.5-7.1-1.7-10.8-2.4c-1,4.3-1,8.6-1.3,13c-0.3,4.1-1.1,8.3-1.3,12.6c-0.8,18.8-1.7,36-4.4,54
	c-1.3,8.5-2.4,17.1-3.3,25.1c-2,16.6-6.1,33.2-11,49.6c-2.5,8.3-4.4,16.8-7.7,24.5c-4.8,11.4-9.3,22.3-15.4,32.6
	c-5.9,9.9-11.2,20.7-18.3,29.8c-9.3,11.8-19.9,23.2-32.2,32c-12.2,8.7-26,16.8-42.8,21.4c-12.3,3.4-24.8,5.4-39.7,5.5
	c-2.2,0-4.1,0.1-6.4-0.2c-5.2-0.7-9-1-13-2c-9.7-2.4-21-6.6-29.3-11.9c-3.5-2.3-7.1-4.2-10.3-6.2c-6.6-4.1-12.4-10-17.9-15.4
	c-8.4-8.4-15.9-17.5-22.1-27.8c-2.1-3.5-3.5-7.3-5.7-10.8c-8.3-13.6-15.2-29-21.4-45c-3.2-8.3-4.8-16.8-6.6-25.6
	c-0.9-4.3-1.7-8.6-2.9-13c-1.2-4.4-1.9-8.9-2.6-13.5c-3.3-21.9-6.3-45.1-7.1-69.7c-0.3-10.1-0.1-28,0.7-42.1
	c0.4-7,0.4-18.6,2.2-27.8C1084.3,256.8,1088.3,240.2,1091.3,228.1 M1522,184.7c10.2-6,18.7-12.3,27.8-19.4
	c8.2-6.5,16.9-16,20.9-26.2c0.8-2,1.9-5.5,1.8-7.7c-0.2-3.2-3.5-7.2-5.5-9.5c-1.4-1.5-3.5-3.4-5.3-4.8c-4.3-3.6-9-6-15.9-7.1
	c-8-1.3-13.2-0.7-18.5,2c-1.8,0.9-4.1,1.6-5.7,2.7c-1.6,1-3.2,3.2-5.1,5.1c-1.8,1.7-3.7,3.5-5.1,5.1c-6.6,7.8-12.8,14.6-18.3,22.7
	c-2.7,4.1-6,7.8-8.6,11.9c-5.4,8.5-10.9,16.8-15.6,25.4c-3.7,6.6-7.6,13.1-11.5,19.2c-1.3,2.1-2.8,4.4-3.1,6.8
	c12.3-2,24.2-6.5,35.5-11C1500.8,195.3,1512,190.6,1522,184.7"/>
<path class="st2" d="M1304.2,355.6c2.9-0.3,5.5-2.1,8.2-3.5c15.3-8.2,32.6-15.6,44.1-28.4c2.9-3.3,7.2-8.4,2.2-12.1
	c-2.4,2.8-3.1,6.2-6.2,6.8c-4.1,0.9-8.2-2-8.8-6.8c-0.4-3.2,0.7-9.7,2.2-13.5c0.9-2.2,4.7-7.5,7.1-7.1c3.1,0.6,5.9,5.4,7.5,7.7
	c2.1,3,4.1,6.5,4.2,11c0.1,3.9-1.1,8.3-2,12.1c-3.2,13.8-16.5,21-27.8,27.8c-2.9,1.8-5.9,3.9-8.6,5.1c-2.7,1.1-6.6,1.4-9.9,2.4
	c-3.5,1-7.1,2.4-9.7,2.6c-1.2,0.1-3.1-0.3-3.8-0.2c-2.1,0.3-5,2.5-7.9,2.2C1297.3,358.9,1302.1,358.6,1304.2,355.6 M1355,306.2
	c-1-4.1-6.5-5.1-6,0.2C1350.7,307.9,1353.5,308.2,1355,306.2"/>
<path class="st2" d="M1220.7,224.8c-6.7-0.9-3.4-12.1-0.2-15c3.1,0.7,7.4,1.6,8.8,4.6C1231.6,219.7,1226.1,225.6,1220.7,224.8
	 M1219.6,216.9c-0.5,2.3,4.2,4.1,5.7,1.5C1224.2,217.5,1220.1,214.4,1219.6,216.9"/>
<path class="st2" d="M1142.4,205.4c-2.5-5.8-2.7-11.8-2-18.7c0.3-2.7,0.5-5.6,1.8-7.7c2.1,0.8,1.1,5.9,1.1,8.4
	c-0.1,6.2,3.1,17.8,9.3,13.2c2.4-1.8,4-5.9,6.2-9.5c3-5.1,7-11.7,13.4-12.6c3.2-0.4,6,0.8,7.9,3.1c1.7,2.4,4.5,8.1,7.1,10.1
	c6.3,5.2,16.4,6,22.3-0.2c1.4-1.5,1.5-4,4-4.8c1.1,3.1-0.6,5.1,0.5,8.6c3.6,0.3,6.9-0.5,8.3-3.1c1.3-2.3,0.9-5.9,3.1-6.8
	c1.5,1.3,0.2,3.8,0.9,5.3c0.9,2,3.8,1.8,5.5,1.8c2-2,0.5-6.1,2.9-7.7c1.8,0.8,1.2,2.7,2,4c0.6,1,2.9,2.5,4.2,3.1
	c5.8,2.6,18.1,1.2,22.3-2.9c1.7-1.6,1.5-4.3,3.8-5.1c1.1,2.9-0.3,6,1.5,7c3.7-0.4,5.7-0.8,7-4c1.1-2.5,1-8.2,3.3-7.7
	c0.1,0,0.8,1.6,0.9,2.9c0.3,3.2,0.1,6.1,4.4,5.1c-0.8-3.7-0.4-9.8,2.2-12.1c5.5,3.4,4.7,21.9-2.2,23.1c-2.3,0.5-4.8-1-7.9-0.9
	c-1.6,0.8-2.8,2.1-3.8,3.5c-0.3,9.2,4.9,14.1,11.9,14.3c7,0.2,12.8-3.5,17.2-6.8c2-1.5,4.2-3.3,6.6-5.5c1.6-1.5,5.5-4.6,5.5-6.4
	c0-1.5-1.1-2-1.5-2.2c-0.9-0.3-7.1,2.3-8.8,2.4c-2.4,0.1-3.4-0.2-4.9-0.7c-2.6-0.8-5-2.5-5.1-5.7c0-1.4,0.8-3.3,1.1-5.3
	c0.6-3.6,1.5-7.4,2.9-9.5c1-1.6,3.4-4,6-3.7c2.4,0.3,4.9,3.5,6.6,5.3c2.1,2.1,3.6,4.4,5.9,5.8c2.7-1.7,5.7-3,7.7-5.3
	c-1.8-7.9-5.1-17.4-7.1-26.7c-0.7-3.3-1.8-6.7-1.8-9.5c0-3.2,0.8-6.4,1.1-8.8c0.3-3,0.7-5.8,2.4-8.1c5.5,0.8,8.1,6.2,11.7,10.1
	c5.6,6.1,10.6,12.6,13.7,21.2c2.7,7.5,4.8,15.1,4.2,24.7c-0.6,10.6-3.8,21.2-7.1,30c-1.1,2.9-2.1,6.1-4.2,8.1c-0.3-3.1,1.1-6,2-8.8
	c2.6-8.5,6.6-17.4,6-28c-0.6-9.8-3.9-18.5-8.4-25.8c-4.5-7.2-9.9-13.7-15.9-19c-0.5,0.9,0.6,1.9,1.1,2.9c0.6,1,1,2.1,1.5,3.1
	c0.9,1.5,3.2,2.3,2.9,4c-1.2,0.7-1.6-0.9-2.9-0.7c-1.6,4.3,0.7,9.4,2.2,14.5c0.7,2.2,1.3,5,2,7.7c0.6,2.5,1.3,5.7,2.2,7.3
	c1,1.6,3.4,1.6,4.6,2.9c1,1,3.8,2.2,4.2,4.2c0.4,2.2-0.8,3.3-1.3,4.4c-0.2,1.4-0.2,2.4-0.4,3.1c0-0.1-0.4,0.9-0.4,0.7
	c-0.3,0.9-0.7,0.6-0.6,0.8c-1.9,0-3.2-1.5-4.6-2.2c-1.3-0.6-2.3-1.5-3.3-2c-1.2,0-1.8-0.5-2.7-0.5c-2,0.1-4.1,1.3-5.5,3.1
	c0.4,6.5-2.9,10.8-5.7,15.2c-2.4,3.7-5,6.3-7.9,8.8c-6.4,5.4-13.6,10.9-23.2,11c-3.6,5.4-3.6,11.1,0.9,16.1c1.5,1.7,4.1,4.1,5.8,4.8
	c0,0,0.9-0.2,1.3,0c0.2,0.1,0.8,0.7,0.5,0.7c1.4,0.3,4.1-0.4,5,0.2c2.7-4,1.5-8.1-1.1-12.3c-2.1-3.4-4.9-5.8-1.1-9.3
	c6.3,3,7,14.1,4.6,20.9c6.2,0.3,12.7-2.4,18.3-4.8c5.6-2.5,11.1-5.5,14.6-9.7c-2.5-8.8-13.4-17.3-6.6-28.9c1.9,0.5,1.5,2.6,2.4,3.8
	c1.7,2,4.5,1.2,7.3,0.9c0,2.6-2.2,6-2.4,8.4c4.7,7.6,5.5,19.2-0.9,26c-7.4,7.9-26.1,16.2-40.1,15c-1.3-0.1-3.8-1.3-5.5-2
	c-1.1,1.5-3.4,6.4-3.5,9c-0.2,2.6,0.9,6.5,3.1,6.4c1.6-0.1,1.3-3.6,3.1-4.6c1.6,3.9-0.8,8.3-3.8,9.7c-9.1-2.6-2.8-16-0.2-21.2
	c-3.4-3.5-6.6-6.5-7.7-11.3c-0.9-3.9-0.9-8.5,0.2-13.9c0.3-1.4,1.8-3.4,1.5-4.6c-0.3-1.3-2.1-1.5-3.3-2.4c-5.7-4.6-5.9-12.4-4.4-20
	c-1.8-1.3-4.2-0.4-6.4-0.7c-1.2-0.2-2.3-0.9-3.5-0.9c-2.7,0-5.8,1.8-8.6,2.4c-5.8,1.3-11.4,0.7-16.3-3.1c-2.4,0.7-2.3,3.1-4.2,3.5
	c-3,0.7-5.9-2.1-8.2-2c-1.5,0.1-2.5,2-3.5,2.6c-3.1,2-7.4,2.6-10.8,1.8c-0.9-0.2-2-1-3.1-1.1c-2.3-0.1-4.7,1.5-7.1,1.8
	c-4.8,0.6-9.8-1.4-13-4c-6.5-5-6.6-14.4-14.3-13.2c-7.8,1.2-10.5,11-14.1,16.8c-1.4,2.4-4.9,6.8-8.6,6.4
	C1145.6,212.2,1143.5,208.1,1142.4,205.4 M1298.7,184.5c1,1.7,5.1,2.6,5.9,1.3c-0.3-0.8-2.4-3.2-4.6-3.5
	C1299.4,182.9,1298.6,183.2,1298.7,184.5"/>
<path class="st2" d="M1142.4,205.4c-2.5-5.8-2.7-11.8-2-18.7c0.3-2.7,0.5-5.6,1.8-7.7c2.1,0.8,1.1,5.9,1.1,8.4
	c-0.1,6.2,3.1,17.8,9.3,13.2c2.4-1.8,4-5.9,6.2-9.5c3-5.1,7-11.7,13.4-12.6c3.2-0.4,6,0.8,7.9,3.1c1.7,2.4,4.5,8.1,7.1,10.1
	c6.3,5.2,16.4,6,22.3-0.2c1.4-1.5,1.5-4,4-4.8c1.1,3.1-0.6,5.1,0.5,8.6c3.6,0.3,6.9-0.5,8.3-3.1c1.3-2.3,0.9-5.9,3.1-6.8
	c1.5,1.3,0.2,3.8,0.9,5.3c0.9,2,3.8,1.8,5.5,1.8c2-2,0.5-6.1,2.9-7.7c1.8,0.8,1.2,2.7,2,4c0.6,1,2.9,2.5,4.2,3.1
	c5.8,2.6,18.1,1.2,22.3-2.9c1.7-1.6,1.5-4.3,3.8-5.1c1.1,2.9-0.3,6,1.5,7c3.7-0.4,5.7-0.8,7-4c1.1-2.5,1-8.2,3.3-7.7
	c0.1,0,0.8,1.6,0.9,2.9c0.3,3.2,0.1,6.1,4.4,5.1c-0.8-3.7-0.4-9.8,2.2-12.1c5.5,3.4,4.7,21.9-2.2,23.1c-2.3,0.5-4.8-1-7.9-0.9
	c-1.6,0.8-2.8,2.1-3.8,3.5c-0.3,9.2,4.9,14.1,11.9,14.3c7,0.2,12.8-3.5,17.2-6.8c2-1.5,4.2-3.3,6.6-5.5c1.6-1.5,5.5-4.6,5.5-6.4
	c0-1.5-1.1-2-1.5-2.2c-0.9-0.3-7.1,2.3-8.8,2.4c-2.4,0.1-3.4-0.2-4.9-0.7c-2.6-0.8-5-2.5-5.1-5.7c0-1.4,0.8-3.3,1.1-5.3
	c0.6-3.6,1.5-7.4,2.9-9.5c1-1.6,3.4-4,6-3.7c2.4,0.3,4.9,3.5,6.6,5.3c2.1,2.1,3.6,4.4,5.9,5.8c2.7-1.7,5.7-3,7.7-5.3
	c-1.8-7.9-5.1-17.4-7.1-26.7c-0.7-3.3-1.8-6.7-1.8-9.5c0-3.2,0.8-6.4,1.1-8.8c0.3-3,0.7-5.8,2.4-8.1c5.5,0.8,8.1,6.2,11.7,10.1
	c5.6,6.1,10.6,12.6,13.7,21.2c2.7,7.5,4.8,15.1,4.2,24.7c-0.6,10.6-3.8,21.2-7.1,30c-1.1,2.9-2.1,6.1-4.2,8.1c-0.3-3.1,1.1-6,2-8.8
	c2.6-8.5,6.6-17.4,6-28c-0.6-9.8-3.9-18.5-8.4-25.8c-4.5-7.2-9.9-13.7-15.9-19c-0.5,0.9,0.6,1.9,1.1,2.9c0.6,1,1,2.1,1.5,3.1
	c0.9,1.5,3.2,2.3,2.9,4c-1.2,0.7-1.6-0.9-2.9-0.7c-1.6,4.3,0.7,9.4,2.2,14.5c0.7,2.2,1.3,5,2,7.7c0.6,2.5,1.3,5.7,2.2,7.3
	c1,1.6,3.4,1.6,4.6,2.9c1,1,3.8,2.2,4.2,4.2c0.4,2.2-0.8,3.3-1.3,4.4c-0.2,1.4-0.2,2.4-0.4,3.1c0-0.1-0.4,0.9-0.4,0.7
	c-0.3,0.9-0.7,0.6-0.6,0.8c-1.9,0-3.2-1.5-4.6-2.2c-1.3-0.6-2.3-1.5-3.3-2c-1.2,0-1.8-0.5-2.7-0.5c-2,0.1-4.1,1.3-5.5,3.1
	c0.4,6.5-2.9,10.8-5.7,15.2c-2.4,3.7-5,6.3-7.9,8.8c-6.4,5.4-13.6,10.9-23.2,11c-3.6,5.4-3.6,11.1,0.9,16.1c1.5,1.7,4.1,4.1,5.8,4.8
	c0,0,0.9-0.2,1.3,0c0.2,0.1,0.8,0.7,0.5,0.7c1.4,0.3,4.1-0.4,5,0.2c2.7-4,1.5-8.1-1.1-12.3c-2.1-3.4-4.9-5.8-1.1-9.3
	c6.3,3,7,14.1,4.6,20.9c6.2,0.3,12.7-2.4,18.3-4.8c5.6-2.5,11.1-5.5,14.6-9.7c-2.5-8.8-13.4-17.3-6.6-28.9c1.9,0.5,1.5,2.6,2.4,3.8
	c1.7,2,4.5,1.2,7.3,0.9c0,2.6-2.2,6-2.4,8.4c4.7,7.6,5.5,19.2-0.9,26c-7.4,7.9-26.1,16.2-40.1,15c-1.3-0.1-3.8-1.3-5.5-2
	c-1.1,1.5-3.4,6.4-3.5,9c-0.2,2.6,0.9,6.5,3.1,6.4c1.6-0.1,1.3-3.6,3.1-4.6c1.6,3.9-0.8,8.3-3.8,9.7c-9.1-2.6-2.8-16-0.2-21.2
	c-3.4-3.5-6.6-6.5-7.7-11.3c-0.9-3.9-0.9-8.5,0.2-13.9c0.3-1.4,1.8-3.4,1.5-4.6c-0.3-1.3-2.1-1.5-3.3-2.4c-5.7-4.6-5.9-12.4-4.4-20
	c-1.8-1.3-4.2-0.4-6.4-0.7c-1.2-0.2-2.3-0.9-3.5-0.9c-2.7,0-5.8,1.8-8.6,2.4c-5.8,1.3-11.4,0.7-16.3-3.1c-2.4,0.7-2.3,3.1-4.2,3.5
	c-3,0.7-5.9-2.1-8.2-2c-1.5,0.1-2.5,2-3.5,2.6c-3.1,2-7.4,2.6-10.8,1.8c-0.9-0.2-2-1-3.1-1.1c-2.3-0.1-4.7,1.5-7.1,1.8
	c-4.8,0.6-9.8-1.4-13-4c-6.5-5-6.6-14.4-14.3-13.2c-7.8,1.2-10.5,11-14.1,16.8c-1.4,2.4-4.9,6.8-8.6,6.4
	C1145.6,212.2,1143.5,208.1,1142.4,205.4 M1298.7,184.5c1,1.7,5.1,2.6,5.9,1.3c-0.3-0.8-2.4-3.2-4.6-3.5
	C1299.4,182.9,1298.6,183.2,1298.7,184.5"/>
<path class="st2" d="M1142.4,205.4c-2.5-5.8-2.7-11.8-2-18.7c0.3-2.7,0.5-5.6,1.8-7.7c2.1,0.8,1.1,5.9,1.1,8.4
	c-0.1,6.2,3.1,17.8,9.3,13.2c2.4-1.8,4-5.9,6.2-9.5c3-5.1,7-11.7,13.4-12.6c3.2-0.4,6,0.8,7.9,3.1c1.7,2.4,4.5,8.1,7.1,10.1
	c6.3,5.2,16.4,6,22.3-0.2c1.4-1.5,1.5-4,4-4.8c1.1,3.1-0.6,5.1,0.5,8.6c3.6,0.3,6.9-0.5,8.3-3.1c1.3-2.3,0.9-5.9,3.1-6.8
	c1.5,1.3,0.2,3.8,0.9,5.3c0.9,2,3.8,1.8,5.5,1.8c2-2,0.5-6.1,2.9-7.7c1.8,0.8,1.2,2.7,2,4c0.6,1,2.9,2.5,4.2,3.1
	c5.8,2.6,18.1,1.2,22.3-2.9c1.7-1.6,1.5-4.3,3.8-5.1c1.1,2.9-0.3,6,1.5,7c3.7-0.4,5.7-0.8,7-4c1.1-2.5,1-8.2,3.3-7.7
	c0.1,0,0.8,1.6,0.9,2.9c0.3,3.2,0.1,6.1,4.4,5.1c-0.8-3.7-0.4-9.8,2.2-12.1c5.5,3.4,4.7,21.9-2.2,23.1c-2.3,0.5-4.8-1-7.9-0.9
	c-1.6,0.8-2.8,2.1-3.8,3.5c-0.3,9.2,4.9,14.1,11.9,14.3c7,0.2,12.8-3.5,17.2-6.8c2-1.5,4.2-3.3,6.6-5.5c1.6-1.5,5.5-4.6,5.5-6.4
	c0-1.5-1.1-2-1.5-2.2c-0.9-0.3-7.1,2.3-8.8,2.4c-2.4,0.1-3.4-0.2-4.9-0.7c-2.6-0.8-5-2.5-5.1-5.7c0-1.4,0.8-3.3,1.1-5.3
	c0.6-3.6,1.5-7.4,2.9-9.5c1-1.6,3.4-4,6-3.7c2.4,0.3,4.9,3.5,6.6,5.3c2.1,2.1,3.6,4.4,5.9,5.8c2.7-1.7,5.7-3,7.7-5.3
	c-1.8-7.9-5.1-17.4-7.1-26.7c-0.7-3.3-1.8-6.7-1.8-9.5c0-3.2,0.8-6.4,1.1-8.8c0.3-3,0.7-5.8,2.4-8.1c5.5,0.8,8.1,6.2,11.7,10.1
	c5.6,6.1,10.6,12.6,13.7,21.2c2.7,7.5,4.8,15.1,4.2,24.7c-0.6,10.6-3.8,21.2-7.1,30c-1.1,2.9-2.1,6.1-4.2,8.1c-0.3-3.1,1.1-6,2-8.8
	c2.6-8.5,6.6-17.4,6-28c-0.6-9.8-3.9-18.5-8.4-25.8c-4.5-7.2-9.9-13.7-15.9-19c-0.5,0.9,0.6,1.9,1.1,2.9c0.6,1,1,2.1,1.5,3.1
	c0.9,1.5,3.2,2.3,2.9,4c-1.2,0.7-1.6-0.9-2.9-0.7c-1.6,4.3,0.7,9.4,2.2,14.5c0.7,2.2,1.3,5,2,7.7c0.6,2.5,1.3,5.7,2.2,7.3
	c1,1.6,3.4,1.6,4.6,2.9c1,1,3.8,2.2,4.2,4.2c0.4,2.2-0.8,3.3-1.3,4.4c-0.2,1.4-0.2,2.4-0.4,3.1c0-0.1-0.4,0.9-0.4,0.7
	c-0.3,0.9-0.7,0.6-0.6,0.8c-1.9,0-3.2-1.5-4.6-2.2c-1.3-0.6-2.3-1.5-3.3-2c-1.2,0-1.8-0.5-2.7-0.5c-2,0.1-4.1,1.3-5.5,3.1
	c0.4,6.5-2.9,10.8-5.7,15.2c-2.4,3.7-5,6.3-7.9,8.8c-6.4,5.4-13.6,10.9-23.2,11c-3.6,5.4-3.6,11.1,0.9,16.1c1.5,1.7,4.1,4.1,5.8,4.8
	c0,0,0.9-0.2,1.3,0c0.2,0.1,0.8,0.7,0.5,0.7c1.4,0.3,4.1-0.4,5,0.2c2.7-4,1.5-8.1-1.1-12.3c-2.1-3.4-4.9-5.8-1.1-9.3
	c6.3,3,7,14.1,4.6,20.9c6.2,0.3,12.7-2.4,18.3-4.8c5.6-2.5,11.1-5.5,14.6-9.7c-2.5-8.8-13.4-17.3-6.6-28.9c1.9,0.5,1.5,2.6,2.4,3.8
	c1.7,2,4.5,1.2,7.3,0.9c0,2.6-2.2,6-2.4,8.4c4.7,7.6,5.5,19.2-0.9,26c-7.4,7.9-26.1,16.2-40.1,15c-1.3-0.1-3.8-1.3-5.5-2
	c-1.1,1.5-3.4,6.4-3.5,9c-0.2,2.6,0.9,6.5,3.1,6.4c1.6-0.1,1.3-3.6,3.1-4.6c1.6,3.9-0.8,8.3-3.8,9.7c-9.1-2.6-2.8-16-0.2-21.2
	c-3.4-3.5-6.6-6.5-7.7-11.3c-0.9-3.9-0.9-8.5,0.2-13.9c0.3-1.4,1.8-3.4,1.5-4.6c-0.3-1.3-2.1-1.5-3.3-2.4c-5.7-4.6-5.9-12.4-4.4-20
	c-1.8-1.3-4.2-0.4-6.4-0.7c-1.2-0.2-2.3-0.9-3.5-0.9c-2.7,0-5.8,1.8-8.6,2.4c-5.8,1.3-11.4,0.7-16.3-3.1c-2.4,0.7-2.3,3.1-4.2,3.5
	c-3,0.7-5.9-2.1-8.2-2c-1.5,0.1-2.5,2-3.5,2.6c-3.1,2-7.4,2.6-10.8,1.8c-0.9-0.2-2-1-3.1-1.1c-2.3-0.1-4.7,1.5-7.1,1.8
	c-4.8,0.6-9.8-1.4-13-4c-6.5-5-6.6-14.4-14.3-13.2c-7.8,1.2-10.5,11-14.1,16.8c-1.4,2.4-4.9,6.8-8.6,6.4
	C1145.6,212.2,1143.5,208.1,1142.4,205.4 M1298.7,184.5c1,1.7,5.1,2.6,5.9,1.3c-0.3-0.8-2.4-3.2-4.6-3.5
	C1299.4,182.9,1298.6,183.2,1298.7,184.5"/>
<path class="st2" d="M1142.4,205.4c-2.5-5.8-2.7-11.8-2-18.7c0.3-2.7,0.5-5.6,1.8-7.7c2.1,0.8,1.1,5.9,1.1,8.4
	c-0.1,6.2,3.1,17.8,9.3,13.2c2.4-1.8,4-5.9,6.2-9.5c3-5.1,7-11.7,13.4-12.6c3.2-0.4,6,0.8,7.9,3.1c1.7,2.4,4.5,8.1,7.1,10.1
	c6.3,5.2,16.4,6,22.3-0.2c1.4-1.5,1.5-4,4-4.8c1.1,3.1-0.6,5.1,0.5,8.6c3.6,0.3,6.9-0.5,8.3-3.1c1.3-2.3,0.9-5.9,3.1-6.8
	c1.5,1.3,0.2,3.8,0.9,5.3c0.9,2,3.8,1.8,5.5,1.8c2-2,0.5-6.1,2.9-7.7c1.8,0.8,1.2,2.7,2,4c0.6,1,2.9,2.5,4.2,3.1
	c5.8,2.6,18.1,1.2,22.3-2.9c1.7-1.6,1.5-4.3,3.8-5.1c1.1,2.9-0.3,6,1.5,7c3.7-0.4,5.7-0.8,7-4c1.1-2.5,1-8.2,3.3-7.7
	c0.1,0,0.8,1.6,0.9,2.9c0.3,3.2,0.1,6.1,4.4,5.1c-0.8-3.7-0.4-9.8,2.2-12.1c5.5,3.4,4.7,21.9-2.2,23.1c-2.3,0.5-4.8-1-7.9-0.9
	c-1.6,0.8-2.8,2.1-3.8,3.5c-0.3,9.2,4.9,14.1,11.9,14.3c7,0.2,12.8-3.5,17.2-6.8c2-1.5,4.2-3.3,6.6-5.5c1.6-1.5,5.5-4.6,5.5-6.4
	c0-1.5-1.1-2-1.5-2.2c-0.9-0.3-7.1,2.3-8.8,2.4c-2.4,0.1-3.4-0.2-4.9-0.7c-2.6-0.8-5-2.5-5.1-5.7c0-1.4,0.8-3.3,1.1-5.3
	c0.6-3.6,1.5-7.4,2.9-9.5c1-1.6,3.4-4,6-3.7c2.4,0.3,4.9,3.5,6.6,5.3c2.1,2.1,3.6,4.4,5.9,5.8c2.7-1.7,5.7-3,7.7-5.3
	c-1.8-7.9-5.1-17.4-7.1-26.7c-0.7-3.3-1.8-6.7-1.8-9.5c0-3.2,0.8-6.4,1.1-8.8c0.3-3,0.7-5.8,2.4-8.1c5.5,0.8,8.1,6.2,11.7,10.1
	c5.6,6.1,10.6,12.6,13.7,21.2c2.7,7.5,4.8,15.1,4.2,24.7c-0.6,10.6-3.8,21.2-7.1,30c-1.1,2.9-2.1,6.1-4.2,8.1c-0.3-3.1,1.1-6,2-8.8
	c2.6-8.5,6.6-17.4,6-28c-0.6-9.8-3.9-18.5-8.4-25.8c-4.5-7.2-9.9-13.7-15.9-19c-0.5,0.9,0.6,1.9,1.1,2.9c0.6,1,1,2.1,1.5,3.1
	c0.9,1.5,3.2,2.3,2.9,4c-1.2,0.7-1.6-0.9-2.9-0.7c-1.6,4.3,0.7,9.4,2.2,14.5c0.7,2.2,1.3,5,2,7.7c0.6,2.5,1.3,5.7,2.2,7.3
	c1,1.6,3.4,1.6,4.6,2.9c1,1,3.8,2.2,4.2,4.2c0.4,2.2-0.8,3.3-1.3,4.4c-0.2,1.4-0.2,2.4-0.4,3.1c0-0.1-0.4,0.9-0.4,0.7
	c-0.3,0.9-0.7,0.6-0.6,0.8c-1.9,0-3.2-1.5-4.6-2.2c-1.3-0.6-2.3-1.5-3.3-2c-1.2,0-1.8-0.5-2.7-0.5c-2,0.1-4.1,1.3-5.5,3.1
	c0.4,6.5-2.9,10.8-5.7,15.2c-2.4,3.7-5,6.3-7.9,8.8c-6.4,5.4-13.6,10.9-23.2,11c-3.6,5.4-3.6,11.1,0.9,16.1c1.5,1.7,4.1,4.1,5.8,4.8
	c0,0,0.9-0.2,1.3,0c0.2,0.1,0.8,0.7,0.5,0.7c1.4,0.3,4.1-0.4,5,0.2c2.7-4,1.5-8.1-1.1-12.3c-2.1-3.4-4.9-5.8-1.1-9.3
	c6.3,3,7,14.1,4.6,20.9c6.2,0.3,12.7-2.4,18.3-4.8c5.6-2.5,11.1-5.5,14.6-9.7c-2.5-8.8-13.4-17.3-6.6-28.9c1.9,0.5,1.5,2.6,2.4,3.8
	c1.7,2,4.5,1.2,7.3,0.9c0,2.6-2.2,6-2.4,8.4c4.7,7.6,5.5,19.2-0.9,26c-7.4,7.9-26.1,16.2-40.1,15c-1.3-0.1-3.8-1.3-5.5-2
	c-1.1,1.5-3.4,6.4-3.5,9c-0.2,2.6,0.9,6.5,3.1,6.4c1.6-0.1,1.3-3.6,3.1-4.6c1.6,3.9-0.8,8.3-3.8,9.7c-9.1-2.6-2.8-16-0.2-21.2
	c-3.4-3.5-6.6-6.5-7.7-11.3c-0.9-3.9-0.9-8.5,0.2-13.9c0.3-1.4,1.8-3.4,1.5-4.6c-0.3-1.3-2.1-1.5-3.3-2.4c-5.7-4.6-5.9-12.4-4.4-20
	c-1.8-1.3-4.2-0.4-6.4-0.7c-1.2-0.2-2.3-0.9-3.5-0.9c-2.7,0-5.8,1.8-8.6,2.4c-5.8,1.3-11.4,0.7-16.3-3.1c-2.4,0.7-2.3,3.1-4.2,3.5
	c-3,0.7-5.9-2.1-8.2-2c-1.5,0.1-2.5,2-3.5,2.6c-3.1,2-7.4,2.6-10.8,1.8c-0.9-0.2-2-1-3.1-1.1c-2.3-0.1-4.7,1.5-7.1,1.8
	c-4.8,0.6-9.8-1.4-13-4c-6.5-5-6.6-14.4-14.3-13.2c-7.8,1.2-10.5,11-14.1,16.8c-1.4,2.4-4.9,6.8-8.6,6.4
	C1145.6,212.2,1143.5,208.1,1142.4,205.4 M1298.7,184.5c1,1.7,5.1,2.6,5.9,1.3c-0.3-0.8-2.4-3.2-4.6-3.5
	C1299.4,182.9,1298.6,183.2,1298.7,184.5"/>
<path class="st2" d="M1264.1,240.9c-0.8-3-1.9-5.5-3.1-9c-0.9-2.6-2.2-7.9-4-7.9c-2.3-0.1-2.2,4.6-3.9,4.9
	c-0.1-3.4,0.4-8.1,2.2-11.9c0.8-1.6,2.1-4.2,3.8-4.2c2.9,0,4.6,7.5,5.7,10.8c4.3,13,5.6,23.2,6.8,38.1c0.7,7.9,2,18.6,6.2,23.8
	c3.8,4.8,11.2,1.9,16.1-1.3c-3.2-3.8-3.6-12.8-0.5-17.9c1.7-2.7,5.9-6.7,8.1-7c5.8-0.9,7,7.4,12.1,7.5c2,0,4.9-2.6,7.1-4
	c4.9-3.1,8-5.7,12.8-9.3c2.3-1.7,5.1-4.5,7.1-4.4c3,0,9.6,2.5,10.4,5.3c1.3,4.8-3.3,10-2.4,13.5c4,0.5,8.5-2.2,10.8-4.9
	c-1.6-7.1-5.7-14.2-7.7-22.3c-0.9-3.8-1.9-8-3.1-11.9c-2.2-7-4.3-15.3,0-21.2c2,2,0.8,6.3,3.8,7.3c1.5,0.5,2.2-0.5,4,0
	c1.8,3.8-0.5,8.6-2.4,10.8c1.6,12.8,9.9,22.3,9.3,34.6c-0.2,4.3-2.3,8.7-4.8,11.3c-6.9,6.9-18.2,6.3-29.6,7.5
	c-2.3,0.2-4.9,0.3-7.1,0.2c-3.4-0.2-6.6-2-10.6-1.5c-1.6,0.2-2.9,1.6-4.4,1.3c1.6-3.8-3.4-8.8-5.5-9.3c-2.2-0.5-4.1,0.7-5.5,2
	c0.7,1.8,1.8,3.9,3.1,5.5c1.1,1.3,2.8,3.5,4.2,4.2c3,1.5,7,0.9,9.1,4c-0.6,2.1-0.5,7.8-2.6,9.3c-3.4-0.1-6.5-3-10.6-2.5
	c-3.7,0.5-8.2,4-11.9,5.3c-1.3,0.5-2.5,0.3-3.5,1.1c-2.5-0.5-4.2,0.2-6.6-1.5c-4.1-3-6-10.7-7.1-15.9
	C1267,268.6,1267.8,255.1,1264.1,240.9 M1336.9,259.7c-2,0.3-3.7,2.4-6.2,4.2c-2.3,1.7-5.1,2.8-6,4.6c8.7,0.5,16.3-1.5,20.7-5.7
	C1343,260.9,1339.6,259.2,1336.9,259.7"/>
<path class="st2" d="M1361.3,274.5c0.6,2.5-2.2,5.7-4,7.5c-2.4,2.5-6,4.5-9.5,6.4c-3.4,1.8-7.1,4.5-10.6,4.2
	c0.4-2.3,2.7-3.4,4.4-4.6c6-4.5,13.5-8.3,19-13.5H1361.3L1361.3,274.5z"/>
<path class="st2" d="M1355.6,195.5c0.5,0.4,1.4,1.6,0.4,1.3c1,2.2-0.1,5.1-2,6.2c-0.3-0.1,0-0.2,0-0.5c-1,0.5-1.5,2-3.1,0.7
	c-2.7-2.2-1.6-6.7-0.2-10.4c0.7-1.9,1.5-4,2.7-4.2c0.6,3-3.4,7.4-0.2,9.7c1.4-0.2,1-2.2,2-2.9c0.3,0,0.1,0.2,0,0.2
	C1355.2,196.1,1355.5,195.8,1355.6,195.5"/>
<path class="st2" d="M1350.5,367.2c0.4,2.7-1.6,7.7-2,8.6c-0.9,2.1-3,6.5-5.5,6.8c-3.9,0.5-6.1-4.4-5.7-8.8
	c0.3-4.4,2.6-9.9,4.6-14.5c2.1-4.8,4.4-9.7,7.5-12.1c1.8,1.8-0.7,3.3-1.3,4.6c-1,2-2,5.1-3.3,7.9c-1.2,2.6-3,5.5-2.9,8.4
	c0.1,1.7,1.3,3.9,2.7,4c1.6,0,2-1.7,2.6-3.3C1347.9,367,1349.8,362.7,1350.5,367.2"/>
<path class="st2" d="M1347.9,235c0.5,2.9-2.8,6.4-4,8.8c-1.6-0.2-2.6-1.3-4.2-2c-1.3-0.6-3.2-0.9-3.5-2.4c-0.1-0.6,3.3-9.1,5.1-8.6
	C1343.6,231.9,1347.4,232.4,1347.9,235"/>
<path class="st2" d="M1340.4,313.9c1.1,0.2,0.7,1.8,0.7,2.4c-0.2,2.7-2,6-3.8,7.1c-6.7-0.4-4.7-9.5-2.7-14.5c1-2.5,2-5.3,3.5-5.5
	c-0.2,2.7-3.1,6.7-3.1,10.3c0.1,1.4,0.5,3.5,1.5,4.2C1338.7,319.3,1338.6,314.3,1340.4,313.9"/>
<path class="st2" d="M1336.9,187.1l-0.1,0.3L1336.9,187.1z"/>
<path class="st2" d="M1327.2,336.4c-0.1-13.6-6.3-27.7-9.1-39.5c-0.2-1-0.1-2.3-0.4-3.5c-0.3-1-0.9-2-0.9-2.8
	c-0.1-1.6,0.7-3.6,1.1-5.1c0.4-1.5,0.7-3.5,2.2-4.2c2,1.5,1.4,4.6,2.7,6.6c1.3,2.2,3.6,3.1,6.4,3.3c0.1,3.4-3,5.6-2.8,9.9
	c0.1,2.5,1.6,5.8,2.4,9c1.9,7.1,3.7,21.3-1.3,26.2C1327.4,336.1,1327.2,336.3,1327.2,336.4"/>
<path class="st2" d="M1299.4,125c-0.4-2.9,6-11.4,9.3-8.6c1.7,1.5,0.5,5.9,1.1,9.5c0.3,1.9,2.3,4.2-0.4,6c-3.1-0.1-3.7,2.7-5.3,4.9
	c-2,2.8-4.2,5.1-6.6,7.5c-1,1-1.9,2.9-3.8,2.9c1.8-4.3,5.9-8.2,8.8-12.6c0.8-1.1,2.6-3.6,2.4-4.6
	C1304.5,127.1,1299.8,127.8,1299.4,125 M1305.1,121.9c-0.7,1.1,0.6,1.7,1.1,0.7C1305.7,122.5,1305.8,121.8,1305.1,121.9"/>
<path class="st2" d="M1315,225.5c-1.8,2.6-2.2,6.6-5.1,8.2c-2.5-1.2-5.5-1.8-7.3-3.8c0.8-3.4,1.6-3.9,1.8-5.7
	c-0.1-0.4,1.3-3.2,2-3.1C1309.4,221.6,1313.4,222.9,1315,225.5"/>
<path class="st2" d="M1309.4,294.8c0.2,0,0,0.2-0.3,0.2L1309.4,294.8z"/>
<path class="st2" d="M1306.9,156.9c1.5,1.3,0.2,3.9-0.9,4.6c-5-0.3-7.4,4.9-10.8,6.2c-0.8-1.6,1.7-3.2,2-5.1c-0.2-1.2-1.8-1.2-2.4-2
	c-2.2-4.6,3-11.9,6.2-10.8c2.4,0.8,3.3,5.3,0.6,7C1302.9,158.2,1305.5,156.3,1306.9,156.9"/>
<path class="st2" d="M1300.1,156.9c0-0.3,0.4-0.2,0.4-0.4c-0.7-0.3-0.8-1.1-1.3-1.5c-0.6,0-0.8,0.4-1.1,0.7
	c-0.1,0.7,1.3,1.4,1.9,1.1L1300.1,156.9z"/>
<path class="st2" d="M1306.4,390.4c1.1,2.1,2,6.2,2,8.8c0,3-0.3,7.5-3.3,8.6c-0.7-2.8,0.3-5.1,0-7.7c-0.2-2.3-1.2-4.8-2.2-6.4
	c-1-1.6-3.5-3.2-3.7-4.8c-0.2-1.2,0.8-4.3,2.2-4.4C1303.1,384.3,1305.7,388.9,1306.4,390.4"/>
<path class="st2" d="M1278.4,118.4c1.9,2.7,6.4,3.1,5.7,8.6c-0.5,4.3-3.1,7.5-7.9,7.3c-5.1-3.7-1.5-12.8,2-16.1
	C1278.4,118.1,1278.4,118.2,1278.4,118.4 M1276.7,124.8c-1.8,2.7,2.3,6.6,4.4,3.5C1280.4,126.4,1277.9,125.3,1276.7,124.8"/>
<path class="st2" d="M1307.5,298.5c3.3,0.5,4.4,7.1,0.2,8c-1.1-0.6-0.9-2.5-2.2-2.9c-1.2,0.4-2.3,0.8-2.7,2c2.7,3,8.4,1.5,11.9,0.5
	c1.3,1.3,0.3,3.2-0.4,4c-2.5,2.8-8.6,4.3-11.5,6.6c-0.3,0.3-0.3,0.1-0.7,0c-0.1-0.2-0.2-0.4-0.4-0.5c0.2-1.3,1.3-1.8,1.5-3.1
	c-1.8-2.2-5-1.9-4.6-5.3C1299,305.1,1303.8,297.9,1307.5,298.5"/>
<path class="st2" d="M1300.1,156.7l-0.1,0.1L1300.1,156.7z"/>
<path class="st2" d="M1295.4,400.5c2.6,5.2,1.1,14.1-3.5,17.4c-1,0.7-2.4,0.6-3.5,1.1c-2.4,1.1-4,4.8-7.1,4.7
	c-5-0.3-4.9-10.9-2-13.9c2,0.9,1,3.8,3.1,4.2c3.9,0.7,4.1-5.3,6.4-7.3c0.9,0.5,1.2,1.6,2.2,2
	C1294.4,408.1,1291.9,400.3,1295.4,400.5"/>
<path class="st2" d="M1284.8,312.6c-1.4-0.5-3.5-0.8-5.3-0.7c-1.3,0.1-2.1,1.1-2.7,0.4c-0.2,0-0.2-0.3-0.2-0.4
	c2.2-2.6,2.7-7.9,6.6-9.3c1.7-0.6,11.8-0.5,12.3,1.3c0.6,2-3.9,7.9-4.8,9c-1.7,2.1-4.6,4.4-7.3,6c-1.6,0.9-3.7,2.4-5.3,1.5
	C1278.6,316.9,1283.3,315.8,1284.8,312.6"/>
<path class="st2" d="M1288.2,351.6c-3,4.5-9.4,8.4-15.2,10.8c-1.7,0.7-3.1,0.6-4.8,0.5c0.1-2.1,2.5-3.1,4.2-4.2
	c4.8-3.2,10.8-7.3,16.1-9.9c0.2-0.1,0.6,0.1,0.9,0c0,0.2-0.2,0.2-0.2,0.5C1289.7,349,1288.7,350.8,1288.2,351.6"/>
<path class="st2" d="M1258.2,293.4c-1-5.9,4.8-12.9,6.6-15.9c0.5,3.2-4.2,7.2-3.8,12.1c0.1,1.4,0.8,2.4,1.8,3.3
	c2.5-0.4,2.5-3.4,4-4.8c2.4,2-0.8,7.6-2.9,9.3c-0.7,0.2-1,0.9-1.8,0.9C1260.7,298.3,1258.6,295.7,1258.2,293.4"/>
<path class="st2" d="M1260.6,402.3c1.3-5,7-8.8,11.3-12.1c3.6-2.8,7.1-5.8,10.1-8.2c0.2,0.1,0.4,0.2,0.7,0.2
	c-0.6,2.1-0.5,4.9-1.8,6.8c-0.8,1.3-3.5,2.4-5.1,3.5c-3.6,2.6-6.6,4.8-9.9,7.3C1264.3,401.1,1262.7,402.9,1260.6,402.3"/>
<path class="st2" d="M1247.8,312.1c1.8,0.4,2.6,1.5,4.4,2.4c0.8,0.5,3.8,2.3,4.2,2.2c2.1-0.7,1.9-6.9,4.4-7.7
	c1.8,0.7,3.1,1.4,4.8,2.4c1,0.5,3.9,1.9,4.2,3.1c0.3,1.6-1.5,3.6-2.2,4.8c-1.7,3.1-2.2,5-6.2,2.7c-2-1.2-3.4-2.1-5.3-3.3
	c-1.6,0.9-1.5,6.5-4.8,7c-1.9,0.3-7.6-2.7-7.9-4.4c-0.3-1.4,1.2-3.5,1.8-5.1C1245.9,314.5,1246.4,313,1247.8,312.1"/>
<path class="st2" d="M1261.5,176.1c-1.4,0.2-2.5,2.5-4.6,2.4c-3.9-0.2-3.9-8-2-11.5c2,0.6,0.3,4.6,2.8,5.1c2.9-0.3,2.8-4.3,4.6-5.1
	c-0.4,0.3,0,0.4,0,0.3c0.5,1,0.4,2.5,1.3,3c3.2-1,2.1-5,4.2-7.1c0.5,0.1,0.5,0.7,0.9,0.9c-1.3,2.9,0.1,6.6-1.8,9.7
	c-0.2,0.4-0.5,2.3-1.8,2.6C1263.7,177,1262.8,175.9,1261.5,176.1"/>
<path class="st2" d="M1252.6,99c-0.3,0.1-0.7,0.2,0.2,0.5c-1.5,6.9-6.5,9.6-12.1,12.8c-2,1.2-3.9,2.9-6.2,2.9
	c-0.6-1.7,0.7-3.8,1.5-4.8c3.7-4.8,11.7-7.2,15.9-11.5C1252.4,98.7,1252.4,98.9,1252.6,99"/>
<path class="st2" d="M1250.4,300.5c-2,1-3.8,2.7-5.3,2.4c-0.6-0.7,0.3-1.5,0.4-2.2c-2.8-3,1.6-12.3,5.3-12.1c1,0,2.3,1,2.4,2.2
	c0.4,3-2.6,3.8-4.6,3.8c1.5,2.7,4.8,0,6.8-0.4C1257.4,297.6,1253.4,298.9,1250.4,300.5"/>
<path class="st2" d="M1244.9,374.7c1-3.4,5.4-5.3,7.5-8.4c-0.1-0.2-0.2-0.4-0.2-0.7c-4,0.2-6.8-1-9.1,1.1c-0.4,0,0-0.7,0.2-0.7
	c-0.3-0.6-0.7,1-1.1,0.2c0-0.2,0.1-0.2,0.2-0.2c0.1,0,0.7,0.2,0-0.4c0.2-0.6,0.8,0.4,0.9-0.4c-0.2,0-0.2-0.1-0.2-0.2
	c-0.2,0.9-0.7-0.3,0.4-0.4c-0.7-0.2,1.3-2.5,1.3-4c1.9-1.2,0.6-1.9,3.5-3.8c0.6-0.3-0.8,0.6-0.9,0.9c0.6-0.3,1.3-0.5,1.4-1.3
	c3.1-0.9,8.4,0.1,12.8,0c0.2,0.3,0.4,0.7,0.7,0.9c-3.4,7-6.9,13.9-15,16.3c-0.9,0.3-1.2,1.3-2.4,1.3
	C1245.2,374.7,1245,374.4,1244.9,374.7"/>
<path class="st2" d="M1239.6,79.3c0.4,0.1-0.2,0.4,0.2,0.5c-1.5,2.9-3.1,7-6,8.6c-2.1,1.2-5,2-7.5,3.1c-2.5,1.1-4.8,3.1-7.3,2.9
	c2.4-8.3,13.4-11.2,20.1-15.2C1239.4,79.3,1239.5,79.7,1239.6,79.3"/>
<path class="st2" d="M1231.7,165.5c-0.8-0.1,0.1-0.2,0.2-1.1c-0.2,0-0.2,0.3-0.2,0.4c-0.6,0.1,0.2-1.3,0.2-0.7
	c1-3.3,2.7-2.6,5.7-0.7c1.4,0.9,4.1,2.3,3.3,4.2c-0.4,1.1-3.6,6.9-4.6,7.3c-2.1,0.8-4.2-3-6.6-3.8c0-0.3,0-0.6,0.2-0.6
	c-0.2-0.3-0.4,0.1-0.6-0.4c0.1-0.5,0.3-0.5,0.6-0.2c-0.5-0.5,0-1.1,0-1.8C1230.9,168.1,1230.6,166.6,1231.7,165.5"/>
<path class="st2" d="M1225.7,101.4c0.9,6.9-1.4,12.5-6.4,14.3c-1.3-0.7-4.2,0.2-6.8-0.5c-2.6-2.4-2.1-7.5,0.2-10.1
	c1.2,1.1,0.9,2.9,2.4,3.1c2.1,0.3,2.3-2.3,3.8-3.5c1.4-0.2,1,1.5,2,1.7C1222.8,105.2,1222.2,98.1,1225.7,101.4"/>
<path class="st2" d="M1222,383.4l0,0.3L1222,383.4z"/>
<path class="st2" d="M1220.7,459.7c0.1,0.1,0.4,0.3,0.7,0.6l0.1,0.2C1221.1,460,1220.8,459.8,1220.7,459.7"/>
<path class="st2" d="M1220.7,459.7L1220.7,459.7L1220.7,459.7z"/>
<path class="st2" d="M1207.7,322.5c0.4-2.2,3-3.4,4.9-4.6c5.7-3.8,12.5-7.2,18.3-11c0.1-0.4,0.4,0,0.6,0c0.1,0.2,0.3,0.4,0.2,0.7
	c-2.4,2.7-3.7,7.1-7.3,9.5C1220.2,319.8,1213.6,321.9,1207.7,322.5"/>
<path class="st2" d="M1219.6,303.8c-2.7,0.7-5.6,2.2-8.2,1.1c0.1-1.6,2.1-2,3.1-2.7c3.6-2.2,7.5-4.4,11.2-6.8
	c6.9-4.5,13.2-7.9,17-15.2c0.8-1.6,2.1-4,2.2-5.5c0.2-2.4-1.3-7-2.2-9.9c-2-6.5-3.8-11.8-5.8-18.1c-1.1-3.4-1.3-6.7-2.2-9.7
	c-0.6-2.1-2-4.1-2-6.4c0-2.7,1.4-5.5,1.8-8.8c0.3-3.4,0.3-4.5,1.3-7.9c0.7-2.3,1.4-4.3,2.4-4.4c1.2-0.1,3.4,3.3,4.9,5.1
	c4.7,5.7,8.3,12.7,10.8,20.3c3.4,10.1,5.1,22,4.4,34.4c-0.4,6.3-2.1,14-4.6,17.7c-1.1-0.5-0.2-2.2,0-3.1c2.3-11.4,0.6-26.4-2.7-37.5
	c-2.9-9.9-7.6-17.7-13.4-24.7h-0.2c-0.8,1.9,0.5,3.4,1.5,5.3c0.8,1.6,2.8,3.3,3.1,4.8c0.3,1.7-0.9,3.4-0.9,5.3
	c0,2.7,1.5,5.8,2.4,8.8c2.3,8,6.3,17.9,5.3,28c-0.9,8.4-5.2,17.9-10.4,22.5c-2.3,2.1-6.2,4.5-9.7,5.5
	C1226.1,302.6,1222.7,302.9,1219.6,303.8"/>
<path class="st2" d="M1203.7,90.7c2.1,0.5,5.7,1.8,7.5,3.9c-1.3,3.2-2.8,6.1-4.8,8.6c-2.4-0.2-4.3-2.6-7.3-2.9
	c-2.3,1.2-1.9,5.5-4.4,6c-2,0.4-3.3-1.9-5.5-2.2c0.5-0.6-0.7-0.2-1.1-0.9c-0.8-1.9,0.2-2.7,1.3-4.4c-0.2,0.1-0.4,0.2-0.4,0.4
	c-0.2-0.9,0.8-0.7,1.1-2l-0.4,0.3c0.2-0.5,0-0.6,0.4-0.9c-1.1-0.4,1.3-1.8,1.6-2.9c-0.2,0.5,0.7,0.4,0.5,0c1.5,0,4,2.1,6.8,2.9
	c0.6-0.9,1.6-1.5,1.8-2.9c0.4,0,0.4,0.2,0.7,0.2c-0.3-0.3-0.2-0.5,0.2-0.5c0-0.2-0.2-0.2-0.2-0.5c-0.2,0.1-0.2,0.5-0.7,0.5
	c0.8-1.3,1.1-2.1,2.2-3.3c0.5-0.1,0.5,0.4,1.1,0.2C1203.9,90.6,1203.8,90.7,1203.7,90.7l-0.5-0.1
	C1203.5,90.7,1203.6,90.8,1203.7,90.7"/>
<path class="st2" d="M1202.6,222.6c8.3,4.2,15.5,12.2,22.9,20.1c3.4,3.6,6.6,7.4,9.3,12.1c3.4,6,6.3,12.2,6.4,20.3
	c0,2.3-0.6,5.2-2,6.6c-2.9-17-12.9-26.8-22.9-36.6c-0.9-0.3-1.4,1.1-2.4,1.1c-1.6,0-4.5-3.4-6.2-4.2c-1.2-0.6-3.9-1.3-4.2-1.5
	c-1.9-1.3-2.7-2.7-2.6-6C1200.9,231.5,1199.8,226.4,1202.6,222.6"/>
<path class="st2" d="M1203.1,367.7c0.7,2.6,4.2,2,5.1,4.2c0.8,2.3-2.7,7.9-3.7,9.7c-2.6-1.3-6-3.2-6.2-4.2c-0.3-2.7,1.3-4.6,2-7.7
	c-1.7-2.4-5.2-3-7.3-5.1c0.3-0.1,0.7-0.2-0.2-0.5c1-2.8,1.1-7.1,3.8-9.3c1.3,0.9,8.3,3,8.8,5.8
	C1205.7,362.9,1203.4,364.8,1203.1,367.7"/>
<path class="st2" d="M1203.7,90.7c-0.1,0.1-0.3,0-0.5-0.1L1203.7,90.7z"/>
<path class="st2" d="M1204.6,308.6c-0.3-5.4-1-11-3.5-13.9c-0.9-1.1-2.1-1.3-2.2-2.4c-0.2-1.9,1.5-2.7,1.5-4.2
	c0.2,0.6,0.4-0.5,0.6-0.5c4.1,1.8,6,9.1,5.9,14.1C1207,304.4,1206.8,307.5,1204.6,308.6"/>
<path class="st2" d="M1200.4,287.9c0.2,0,0.2,0.2,0,0.2L1200.4,287.9z"/>
<polygon class="st2" points="1200.4,288.5 1200.4,288.6 1200.4,288.5 "/>
<path class="st2" d="M1198.6,347.8c-7.9-12.8-1.9-36.3-11.5-48.3c-1.8,0.2-1.9,3-3.1,3.1c-0.3-2.7,0.3-6.4,1.1-9.5
	c0.6-2.3,1.6-4.8,3.1-6c6.5,4.8,7.5,14.5,8.6,24.5c1.2,11.4,1.3,27.4,9.9,31.7c3.7,1.9,9.3-0.2,12.1-3.5c1.5-1.8,2.4-5.4,4-7.9
	c0.8-1.2,3.7-5.1,5.3-5.1c1.4,0,2.6,2.7,4,4.4c5.6,7,17.9,7.9,29.8,7.9c9.8,0.1,18.6-2.3,26.9-6c2.2-1,6.1-2.5,7.1-4.4
	c1-1.9-0.1-5.4,2.6-6.2c1.2,1.6-0.5,5,0.4,7.1c1.5,1.6,6.2,1.6,8.1,1.3c0.3-1.3-1.2-2.2-1.3-3.8c-0.2-2.1,1.3-9.2,2.8-9.3
	c3-0.1,4.7,10,4.4,14.1c-0.3,4.4-2.1,9-5.1,9.9c-1.1,0.3-3,0-4.8-0.2c-1.8-0.2-3.8-0.3-5.1-0.7c-0.8-0.2-1.5-1.1-2.4-1.1
	c-1.5-0.1-4.2,1.8-5.9,2.6c-8.1,3.9-19.3,7.3-28.7,6.2c0.9,0.3-0.4,0.6-1.3,0.7c-1.2,0.1-2.3-0.4-3.8-0.4c-4.3-0.2-9.8,0.1-13.7-1.1
	c-2.6,1.9-1.4,7.6-4,9.5c-3.4-3.2-8.3-6.8-10.8-11.3c-1-1.8-1.4-5.7-2.2-7.1c-2.9,0.9-3,4.2-4.2,6.6c-1.9,3.8-5.7,7.2-9.5,8.4
	c-1,0.3-2.7,0.8-4,0.7C1204.1,354.4,1200.5,350.8,1198.6,347.8"/>
<path class="st2" d="M1194.4,135.3c0.7,0,1.3-0.6,2,0c-0.1,0.1-0.6,0-0.9,0.2l0.2-0.2C1195.4,134.9,1195,136.3,1194.4,135.3"/>
<path class="st2" d="M1197.3,253.9c-2.4-1.7-6.7-1.4-9.9-2.2c0.5-1.5,1.4-3.9,2.6-5.7c0.4-0.6,1.9-2.3,2.7-2.7
	c2.9-1.3,6.7,0.2,9.9,0.9c2.3,0.5,3.6,0,4.2,1.3c1.2,2.5-3.9,8.6-5.5,10.2c-1.3,1.3-3,2.7-4.6,3.8c-1.6,1-3.8,2.7-5.5,1.3
	C1192,257.3,1196.1,257.1,1197.3,253.9"/>
<path class="st2" d="M1191.2,142.8c0.2,0.2,0.4,0.4,0.6,0.4C1191.6,143.1,1191.4,143,1191.2,142.8"/>
<path class="st2" d="M1175,203.2c1.1,5.6-4.6,11.5-10.3,11c-4.9-4.7,0.7-12.3,3.1-16.3C1169.8,200.1,1174.5,200.3,1175,203.2
	 M1166.7,209.4c2.3,0.1,4.9-0.5,4.8-2c-0.5-1.4-3.3-2.4-5.1-3.3C1164.8,205.3,1165.3,208.1,1166.7,209.4"/>
<path class="st2" d="M1163.6,164.9c3.2-2.8,7.1-5,9.4-8.8c-2.4-2.6-6.2-2.8-5.7-6.6c0.3-2.2,3.4-6,5.3-7.1c1.7-0.9,4.8-1.8,5.7-0.5
	c0.5,0.8,0.5,2.7,0.4,3.8c-0.1,1.8-1.3,4-1.1,5.5c0.2,1.6,2.8,2.3,3.1,4.2c0.3,1.6-0.9,2.8-2.4,4c-1.5-0.1-1.3-1.8-2.7-2
	c-1.7,1-1.6,2.8-2.6,4.2c-2.2,2.9-6.3,4.1-8.8,6.8c-1.4-0.3-2.5,0.9-4,0.9C1160.2,167.3,1162.3,166,1163.6,164.9 M1175.3,150.1
	c0.4-1.1,0.4-3.2-0.5-3.8c-1.8,0-3.2,0.4-3.3,2.2C1172.3,149.4,1173.9,150.4,1175.3,150.1"/>
<path class="st2" d="M1191.2,142.8c0.2,0.1,0.4,0.3,0.6,0.4C1191.6,143.2,1191.4,143.1,1191.2,142.8"/>
<path class="st2" d="M1191.2,142.8c-0.2-0.2-0.5-0.4-0.7-0.7C1190.7,142.2,1191,142.5,1191.2,142.8"/>
<path class="st2" d="M1181.2,234.5c-0.6-2.7-6-2.7-6.8-4.9c-0.6-1.4,1.3-3.6,1.8-4.8c0.8-2.1,0.9-3.7,2.4-4.6
	c2.9,1.3,8.3,2.3,8.6,5.5c0.2,2.5-2.4,3.9-2.9,6.6c0.7,3,5.7,1.9,6.2,5.3c0.2,1.5-3.4,8.4-4.8,8.6c-1.6,0.2-4.4-2.5-5.7-3.5
	l-0.9-0.7C1178.3,239.7,1181.8,237.2,1181.2,234.5"/>
<polygon class="st2" points="1176.5,130.5 1176.4,130.6 1176.4,130.5 "/>
<path class="st2" d="M1222,383.4l0,0.3L1222,383.4z"/>
<path class="st2" d="M1120.2,310.7c0.3,0.1,3,4,1.6,1.8c0.7,1,1.7,2.1,2.6,2c3.4-0.2,1.3-7.3,4.9-7.9c1.3,3.1-1.4,5.8-1.8,9.3
	c-0.8,6.5-3.8,11.5-3.1,18.1c0.3,2.3,1.6,4.8,2.9,6.4c3.1,4,8.8,8.2,14.6,7.7c0.3-4.9-1.5-8.8-3.3-13.4c-1.1-2.9-3.3-5.5-3.5-7.7
	c-0.4-3.6,2.4-7.4,5.1-9.7c-1.2-0.9-1.8,0-2.4,0.7c-0.9,1-0.6,1.8-1.5,1.8c-1.9,0,0.8-8,3.9-8.4c3.4-0.5,11.5,5.2,7.1,8.8
	c-2.4,2-7,0.6-8.8,4c2.9,6.5,6.8,15.7,5.7,24.2c1.7,1.1,3.8,0.3,5.5,0c8.7-1.6,17.6-5.8,24.5-10.8c2-1.5,6.7-4.9,6.8-7.3
	c0.1-2.3-3.4-5.6-4.9-8.2c-3-5.5-5.6-12.3-2-19.4c1.9,1,1.9,3.2,4,3.5c1.4,0.2,1.7-1,3.3-0.9c0.9,3-1.1,6.6-0.7,9.3
	c0.3,1.7,2,3,2.6,4.2c2,4,3.5,12.3,1.1,17c-0.5,0.9-1.5,1.3-2.2,2.2c-1.3,1.7-2.2,4.1-3.5,5.5c-4.3,4.7-10.5,7.5-16.1,10.8
	c3.1,3.4,7.4,6.3,7.9,12.8c0.4,5.1-0.4,9.8-1.8,14.1c3.6,1.7,9.3,2.9,13.7,2c-1.1-4.8-1.6-11.5-3.1-17.6c-0.5-2.2-1.4-4-1.3-5.7
	c0.1-1.4,1-3.2,1.3-4.8c0.3-1.6,0.2-4,2-4c1.6,1.7,1.5,4.4,2.4,6.4c1,2.1,2.4,3.5,3.5,5.3c0.8,0.4,2,0.5,2.4,1.3
	c-0.2,2.7-3.3,3.4-3.6,6.2c-0.2,2.2,0.8,5.9,1.6,8.4c0.7,2.3,1.7,4.3,2.4,6c7.2,1.8,16-0.3,23.6,0.9c1.2,0.2,1.4,0,2.3,0.2
	c1.8-0.5,1.8-0.1,3.9-0.6c0.6,0.9,1-0.1,0.8,0.6c1.2-0.1,1.6,0,1.6-1.3c-0.9-0.1-0.2,1.1-0.6,0.7c-1-0.1,0.1-1.8,0.4-1.5
	c-0.1-1.8-1.5-5.9-2.2-9.1c-0.2-0.9-2.9-5.4-4.4-7.3c-2.1,0.8-2.7,4-4.2,4.6c-1.2-0.5-0.4-2.3-0.2-3.3c0.7-3.6,2.3-13.1,5.5-13.5
	c2.2-0.2,3.6,3,4.4,4.6c1.1,2.2,2.4,4.3,3.1,6c2.5,6,2.8,13.3,5.7,18.3c10.3-1.3,20.3-3.6,30-6.8c9.4-3.2,18.9-7.1,28-7.9
	c4.6-0.4,11.5,0.2,12.1,4c0.7,3.8-1.1,8.8-2.4,11.5c-1.8,3.9-6.4,7.4-9.7,11.5c-1.6,2-3.2,4-4.6,6c-1.4,2-2.6,4.7-5.1,4.8
	c-0.5-2.5,1.6-4.6,2.9-6.6c1.3-2.1,2.6-4.4,4-6.4c2.9-4.1,6.5-7.7,8.8-11.9c-0.7-1.6-2.1-1-3.3-2.7c-0.6,0.3-1.8,0-2.7,0
	c-11.2-0.3-21.8,4.8-33.3,8.8c-3.4,1.2-7.1,2.3-11.7,3.3c-3.6,0.8-10.9,1.2-11.9,3.1c-0.8,1.4,0.6,6.5,0.9,9.1
	c0.4,3.6,0.5,6.9,0.9,9.2c0.9,5.7,3.6,12,4.4,16.8c0.3,1.6,0,3.2,0.2,4.6c0.6,3.5,2.1,6.3,3.3,9.3c4.5-2,8.1-5.3,12.1-7.9
	c3.9-2.6,8.3-4.8,11.7-8.2c-5-6.9-18-7.4-25.1-13.2c-1.2-1-4.6-4.6-4.6-5.8c-0.1-1.8-0.8-7.1,0-9c0,0,0.7-1.3,0.7-0.5
	c1.2-1.2,2.2,2.4,4.2,3.3c2.8,1.3,5.2-0.7,7.9-0.7c0.9,2.2-1.4,2.6-0.9,4.6c0.5,2.3,9.8,4,13,5.3c5.1,2.1,9.3,6.2,8.8,14.3
	c-0.2,3.8-0.9,8.9-3.1,11.5c-1.4,1.7-4,3-5.9,4.2c-4.9,3-8.7,4.1-11.2,9.3c3.3,3.4,10,3.4,13.4,0.4c2.7-2.3,4.1-7.6,6.8-8.2
	c2.2-0.5,4.4,3.5,6.8,3.3c1.4-0.1,1.9-2,3.1-3.3c1.8-2.1,4.6-4.3,5.7-6.2c0.3-0.4,0.3-1.4,0.7-2c0.9-1.5,2.8-3,4.2-4.8l3.8-5.1
	c2.5-3.5,5.3-8.1,8.4-9.3c3.2-1.2,9.4-0.4,12.1,3.8c0.3,5.2-1.7,8.1-1.8,12.3c2.6-0.7,7.3-6.4,8.3-9.7c-0.2,0.5,0.1-1.7-0.4-0.4
	c-0.4-0.8,0.4-0.8,0.4-1.5c0.1-1.2-0.3-2.4-0.4-3.8c-0.2-2.3,0.2-4.7,0-6.8c-0.2-2.9-0.8-5.2-1.3-8.6c-0.6-4.4-2.5-9-3.5-13.5
	c-1.3-5.7-3.4-10.8-2.9-16.8c0.4-4.1,1.6-7.7,3.3-11.7c12.2,3.9,22.2,15.4,20.9,32.4c-0.5,6.1-2.5,13.3-4.6,18.5
	c-0.7,1.6-1.3,3.9-3.1,4.2c-0.3-4.8,2.7-9.3,3.3-14.3c1.5-13.5-5.2-22.6-13.9-27.3c-0.4,2.7,0.7,5.3,1.3,7.7c0.6,2.6,1.2,5.2,2,7.7
	c1.4,4.9,3.3,10.2,3.8,15.7c0.2,2.2-0.3,4.7,0,7c0.2,1.1,0.8,1.8,0.9,2.6c0.1,2.1-0.3,4.9-0.7,6.8c-0.3,1.8-0.9,4-1.6,5.3
	c-0.5,1-1.4,1.5-1.8,2.2c-1.2,2.3-1.6,4.5-2.6,6.2c-3.8,5.8-11.1,11.5-18.1,14.6c-1.6,0.7-3.5,1.1-5.1,1.8
	c-3.7,1.6-7.2,3.4-11.7,4.8c-2.3,0.7-5.7,0.8-7.7,2.2c-2.9,1.9-3,6.6-5.5,9.3c-1.1-2.3,1.8-6.1,1.3-9c-0.2-1.1-2.5-3.7-4-3.7
	c-2.3,0-3.8,5.1-5.9,7.3c-1.6,1.7-4.7,3.4-7.5,3.5c-7.3,0.3-11.4-4.3-14.5-9.9c-2,0.8-3.5,2-5.1,3.3c-1.4,0.2-3.8,2.1-5.3,3.3
	c-1.3-0.1-0.8,0-1.5,0.7c-0.5-0.3-1.1-0.1-2,0.5c-2.6-0.1-1.5-0.3-2.8-0.2c0.5,0,0-0.8-0.3,0l-1.7-1.5c-1.2-1.8-3.1-3.7-3.6-8
	c-0.8-6.5,1.7-13.3,2.9-19.6c-1.9-0.4-2.6,2.1-4.2,4c-1.5,1.7-4.5,3.3-5.7,5.5c-0.4,0.7-0.4,2-0.9,3.1c-0.9,2.4-4.9,9.3-1.1,9.7
	c2.8,0.3,2.1-4.3,4.2-5.3c2,1.3,1.1,4.8,0.2,6.6c-0.9,1.8-2.8,3.2-4,4c-10.7,1.8-1.6-14.4-2.2-15c-0.4-0.3-4.3,2.2-6.4,3.1
	c-3.6,1.6-7,3.2-11.5,2.6c-6.9-0.8-12.6-7.5-13.2-15.2c-0.5-6.4,1.3-14.5,3.1-19.6c0.7-1.9,0.9-4.3,2.6-5.1c1.7,2.7,0,6-0.7,8.6
	c-1.3,5.3-2.1,10.2,0.2,14.8c2,3.8,7.6,7,13.9,5.3c4.9-1.3,11-4.9,15-7.9c1.5-1.2,7.4-5.3,7.5-8c0-1.6-2.5-3.8-4-5.9
	c-3.5-5.2-8-13.6-2.2-20.1c1.5,0.4,1.9,1.8,2.7,2.9c2.8,0.8,4.2,2.8,6.1,4.4c-0.7,1.3-2.8,1.3-3.5,2.7c1.5,3.7,4.6,5.3,5.5,9.5
	c0.8,3.3-0.1,6.8,0.2,11.2c0.1,1.9,0.1,2.7-0.2,4.6c-0.4,2-0.9,4.9-1.1,7.5c-0.4,4.5,0.4,10.2,4.2,10.8c3.9,0.6,6.3-2.4,8.6-4
	c-4.3-16.5-5.3-35.4-10.3-52.3c-4.2-0.7-6.7,0.3-9.7,0.5c-5.1,0.3-13.6-0.5-21,0c0.8,6.8,5,14.3,4.4,23.8c-0.5,6.8-0.9,13-4,16.8
	c-1-2.9,0-5.4,0-8.6c0-8.4-3.7-17.7-6.2-25.4c-1.1-3.5-1-7.6-4.4-8.2c-2.9-0.5-5.3-0.2-7.5-0.4c-1.3-0.1-2.9-0.5-4.9-0.9
	c-1.6-0.3-3.9-1.2-4.9-0.9c-2.1,0.6-3.2,6.5-4,9.3c-1.1,3.8-3.1,6.7-2.4,10.1c0.3,1.6,2.4,3.5,3.8,3.3c2.6-0.3,1.9-6.1,3.8-6.2
	c2.4-0.1,0.2,7.8-0.2,9c-0.8,2.9-2.4,7.3-4.9,7.7c-1.4,0.2-4.8-2-5.5-3.3c-1.4-2.7-1.4-5.9-1.1-9.3c0.7-7.4,4.9-15.3,7.3-20.9
	c-5.4-2.6-11.9-3.2-16.3-7.3c-5.3-1.2-8.3-6.8-11.2-10.8c-3.2-4.3-7.4-8.2-8.4-13c1.6-0.3,2.3,1.6,3.5,2.4c0.6,0.4,1.4,0.5,2,0.9
	c1.2,0.9,1.9,2.4,3.1,3.3c2.1,1.6,4.7,2.6,6.2,4.6c8.2,3.1,15.8,7.8,25.1,9.5c3.3-4,1.7-12.9-0.9-16.3c-1.6-2.1-5.1-3.7-5.5-5.5
	c-0.5-2,1.6-2.5,0.9-4.2c-0.3,0.2-0.9,0.1-1.3,0.2c-2.3,0.5-4.5,1.7-6.8,2.4c-8.8,2.8-18,0.9-24.2-4.8c-5-4.6-8.4-8.8-7.7-18.7
	c0.1-1.2,0.3-3.1,0.7-4.6c0.2-1.1,1.2-3.1,0.9-4.2c-0.4-1.2-3.6-2.3-4.4-3.5c-6.7-9.5,2.4-24.4,6.8-33.7c1.3-2.9,2.4-6.1,4.6-7.7
	c0.8,1.9-1,3.8-1.8,6c-0.8,2-1.3,4.2-2.2,6.4c-1.7,4.3-4.8,8.2-5.3,11.9c-0.2,1.6,0.2,3.1,0.4,4.4
	C1120.5,309.8,1120.2,310.5,1120.2,310.7 M1299.2,437.8c3.6-2.5,7.9-4.8,9.5-9.3c-2.4-1.8-6.7-3.3-9.5-1.8c-2.6,1.3-4.8,5.3-6.8,8.2
	c-2.3,3.3-4.5,6.3-6,8.6C1290.8,441.9,1295.5,440.4,1299.2,437.8"/>
<path class="st2" d="M1176.6,130.2l-0.2,0C1176.4,130,1176.6,130.1,1176.6,130.2"/>
<path class="st2" d="M1164,133.3c1.5,1.4-0.5,6.2-1.8,6.8c-1.1,6.5-8.7,0.8-7.1-6.2c1.3-5.3,6.3-12.1,8.2-14.5
	c0,4.4-4.7,8.1-5.5,12.6c-0.2,1.2,0.1,3.1-0.9,2.9c0.5,1.1,1.2-0.3,0.7-0.4c0.7-0.2,0.4,1.2,0.9,1.8c-0.4,0-0.2-0.7-0.7-0.6
	c0.8,0.9,1.7,2.5,3.1,2.7C1162.5,137.2,1162.2,134.1,1164,133.3"/>
<path class="st2" d="M1161.4,330.9c-1,0.6-1.6-0.2-2.4-0.4c1-0.4-4.1-1.7-4.2-3.1c-1,0.6,0-0.5-1.1,0c0.4-0.6-0.1-1.3-0.6-0.8
	c0,0.3,0.2,0.1,0.2,0c0.3,0.1,0,0.2,0,0.4c0.2,0,0.2-0.1,0.2-0.2c0.6,0.6-1,0.3-0.7-0.7c0.3-0.7,0.7-2.9,1.8-4
	c-0.7,0.6-0.1-1.9,0-0.9c-0.1-1.3,0.9-2.8,1.8-4c2.6,0.4,6.1,2.8,8.6,4.6C1164.1,325.2,1162.8,328.1,1161.4,330.9"/>
<path class="st2" d="M1154.6,252c-2.4-1.3-6.2-2.6-7.5-3.8c0.5-3,1.4-6.7,3.8-9.5c3,0.4,6.1,2.5,8.2,4.6
	C1157.7,246.4,1156.4,249.5,1154.6,252"/>
<path class="st2" d="M1150.4,167.3c-0.5-2-6.5-4-6.8-6.4c-0.2-1.4,1.4-3.4,2-4.9c0.8-1.8,1.4-3.2,2.7-4c1.4,0.3,2.8,1.7,4.2,2.9
	c1.1,0.9,3.3,2.3,3.5,3.5c0.4,2.3-2.3,4-2.8,6.4c1.7,3.3,6.1,3.9,7.9,7.1c-1.1,1.5-2.2,7.6-4.4,8.2c-2.3,0.6-7.9-4.8-8.1-5.1
	C1147,172.5,1151.2,170.7,1150.4,167.3"/>
<path class="st2" d="M1146.4,253.5c2.7,0.3,5.7,2,7.9,3.5c2.1-1.7,1.8-5.7,4-7.3c2.7,0.9,6.3,2.6,8.6,4.6c-0.9,3.4-2.1,6.6-3.9,9
	c-3.1-1.1-6.3-2.1-8.6-4c-1.8,2.1-1.5,6.1-4.4,6.6c-2.5,0.4-4.8-2.2-7.5-2.7C1142.5,260.5,1144.2,255.8,1146.4,253.5"/>
<path class="st2" d="M1145.3,403.2c-5.7-2.1-2.5-13.8,0.7-15.9c-0.3,3.1-3,9.1,0.9,11c1.4-1,1.4-3.5,2.4-4.9c0.3,0.1,0,0.4-0.2,0.4
	c0.2,0.7,0.3-0.5,0.9-0.2c0.9,1.9-0.2,3.4-0.2,5.5c-0.2-0.1-0.4-0.2-0.7-0.2c0.6,0.3,0.3,0.9-0.2,0.5c1,1.4-0.7,2.6-2,3.7
	c0-0.7,3.4-3.3,0.9-2C1147.9,402.4,1146.1,402.8,1145.3,403.2"/>
<path class="st2" d="M1142.4,205.4c-2.5-5.8-2.7-11.8-2-18.7c0.3-2.7,0.5-5.6,1.8-7.7c2.1,0.8,1.1,5.9,1.1,8.4
	c-0.1,6.2,3.1,17.8,9.3,13.2c2.4-1.8,4-5.9,6.2-9.5c3-5.1,7-11.7,13.4-12.6c3.2-0.4,6,0.8,7.9,3.1c1.7,2.4,4.5,8.1,7.1,10.1
	c6.3,5.2,16.4,6,22.3-0.2c1.4-1.5,1.5-4,4-4.8c1.1,3.1-0.6,5.1,0.5,8.6c3.6,0.3,6.9-0.5,8.3-3.1c1.3-2.3,0.9-5.9,3.1-6.8
	c1.5,1.3,0.2,3.8,0.9,5.3c0.9,2,3.8,1.8,5.5,1.8c2-2,0.5-6.1,2.9-7.7c1.8,0.8,1.2,2.7,2,4c0.6,1,2.9,2.5,4.2,3.1
	c5.8,2.6,18.1,1.2,22.3-2.9c1.7-1.6,1.5-4.3,3.8-5.1c1.1,2.9-0.3,6,1.5,7c3.7-0.4,5.7-0.8,7-4c1.1-2.5,1-8.2,3.3-7.7
	c0.1,0,0.8,1.6,0.9,2.9c0.3,3.2,0.1,6.1,4.4,5.1c-0.8-3.7-0.4-9.8,2.2-12.1c5.5,3.4,4.7,21.9-2.2,23.1c-2.3,0.5-4.8-1-7.9-0.9
	c-1.6,0.8-2.8,2.1-3.8,3.5c-0.3,9.2,4.9,14.1,11.9,14.3c7,0.2,12.8-3.5,17.2-6.8c2-1.5,4.2-3.3,6.6-5.5c1.6-1.5,5.5-4.6,5.5-6.4
	c0-1.5-1.1-2-1.5-2.2c-0.9-0.3-7.1,2.3-8.8,2.4c-2.4,0.1-3.4-0.2-4.9-0.7c-2.6-0.8-5-2.5-5.1-5.7c0-1.4,0.8-3.3,1.1-5.3
	c0.6-3.6,1.5-7.4,2.9-9.5c1-1.6,3.4-4,6-3.7c2.4,0.3,4.9,3.5,6.6,5.3c2.1,2.1,3.6,4.4,5.9,5.8c2.7-1.7,5.7-3,7.7-5.3
	c-1.8-7.9-5.1-17.4-7.1-26.7c-0.7-3.3-1.8-6.7-1.8-9.5c0-3.2,0.8-6.4,1.1-8.8c0.3-3,0.7-5.8,2.4-8.1c5.5,0.8,8.1,6.2,11.7,10.1
	c5.6,6.1,10.6,12.6,13.7,21.2c2.7,7.5,4.8,15.1,4.2,24.7c-0.6,10.6-3.8,21.2-7.1,30c-1.1,2.9-2.1,6.1-4.2,8.1c-0.3-3.1,1.1-6,2-8.8
	c2.6-8.5,6.6-17.4,6-28c-0.6-9.8-3.9-18.5-8.4-25.8c-4.5-7.2-9.9-13.7-15.9-19c-0.5,0.9,0.6,1.9,1.1,2.9c0.6,1,1,2.1,1.5,3.1
	c0.9,1.5,3.2,2.3,2.9,4c-1.2,0.7-1.6-0.9-2.9-0.7c-1.6,4.3,0.7,9.4,2.2,14.5c0.7,2.2,1.3,5,2,7.7c0.6,2.5,1.3,5.7,2.2,7.3
	c1,1.6,3.4,1.6,4.6,2.9c1,1,3.8,2.2,4.2,4.2c0.4,2.2-0.8,3.3-1.3,4.4c-0.2,1.4-0.2,2.4-0.4,3.1c0-0.1-0.4,0.9-0.4,0.7
	c-0.3,0.9-0.7,0.6-0.6,0.8c-1.9,0-3.2-1.5-4.6-2.2c-1.3-0.6-2.3-1.5-3.3-2c-1.2,0-1.8-0.5-2.7-0.5c-2,0.1-4.1,1.3-5.5,3.1
	c0.4,6.5-2.9,10.8-5.7,15.2c-2.4,3.7-5,6.3-7.9,8.8c-6.4,5.4-13.6,10.9-23.2,11c-3.6,5.4-3.6,11.1,0.9,16.1c1.5,1.7,4.1,4.1,5.8,4.8
	c0,0,0.9-0.2,1.3,0c0.2,0.1,0.8,0.7,0.5,0.7c1.4,0.3,4.1-0.4,5,0.2c2.7-4,1.5-8.1-1.1-12.3c-2.1-3.4-4.9-5.8-1.1-9.3
	c6.3,3,7,14.1,4.6,20.9c6.2,0.3,12.7-2.4,18.3-4.8c5.6-2.5,11.1-5.5,14.6-9.7c-2.5-8.8-13.4-17.3-6.6-28.9c1.9,0.5,1.5,2.6,2.4,3.8
	c1.7,2,4.5,1.2,7.3,0.9c0,2.6-2.2,6-2.4,8.4c4.7,7.6,5.5,19.2-0.9,26c-7.4,7.9-26.1,16.2-40.1,15c-1.3-0.1-3.8-1.3-5.5-2
	c-1.1,1.5-3.4,6.4-3.5,9c-0.2,2.6,0.9,6.5,3.1,6.4c1.6-0.1,1.3-3.6,3.1-4.6c1.6,3.9-0.8,8.3-3.8,9.7c-9.1-2.6-2.8-16-0.2-21.2
	c-3.4-3.5-6.6-6.5-7.7-11.3c-0.9-3.9-0.9-8.5,0.2-13.9c0.3-1.4,1.8-3.4,1.5-4.6c-0.3-1.3-2.1-1.5-3.3-2.4c-5.7-4.6-5.9-12.4-4.4-20
	c-1.8-1.3-4.2-0.4-6.4-0.7c-1.2-0.2-2.3-0.9-3.5-0.9c-2.7,0-5.8,1.8-8.6,2.4c-5.8,1.3-11.4,0.7-16.3-3.1c-2.4,0.7-2.3,3.1-4.2,3.5
	c-3,0.7-5.9-2.1-8.2-2c-1.5,0.1-2.5,2-3.5,2.6c-3.1,2-7.4,2.6-10.8,1.8c-0.9-0.2-2-1-3.1-1.1c-2.3-0.1-4.7,1.5-7.1,1.8
	c-4.8,0.6-9.8-1.4-13-4c-6.5-5-6.6-14.4-14.3-13.2c-7.8,1.2-10.5,11-14.1,16.8c-1.4,2.4-4.9,6.8-8.6,6.4
	C1145.6,212.2,1143.5,208.1,1142.4,205.4 M1298.7,184.5c1,1.7,5.1,2.6,5.9,1.3c-0.3-0.8-2.4-3.2-4.6-3.5
	C1299.4,182.9,1298.6,183.2,1298.7,184.5"/>
<path class="st2" d="M1127.9,195.5c2.1,1.3,6.8,5.3,8.2,7.9c1.4,2.7,2.6,7.3,3.5,10.8c0.4,1.7,0.9,3.9,1.1,6
	c0.2,1.8,0.9,4.4-0.9,5.3c-2.7-5.6-4.2-14.1-8.4-19.2c-1.5-1.9-5.6-4.5-6-6.6C1125.3,198.5,1126.8,195.8,1127.9,195.5"/>
<path class="st2" d="M1130,253.7c-1-7.7-3.1-16.9-7.4-22.5c-2.4,0.6-2.1,3.9-4.2,4.8c-0.9-1.5,0-4.1,0.6-6.1
	c0.6-2.1,1.5-4.6,2.4-6.1c0.7-1.1,2.4-3.3,3.7-3.3c1.4,0.1,3,3.1,3.5,4.2c2.8,6.6,4.3,15.1,5.9,22.1c3.4-4.3,6.4-10.1,10.7-14.9
	c4-4.4,9.3-9.2,14.9-10.5c3.1-0.7,9-0.2,10.3,2.8c1.3,3.2-0.8,9.1-2.6,9.4h-0.2c-0.5,0.9-1.5-1.2-2.8-1.7c-1.2-0.5-3.8-0.6-5.7-0.2
	c-7.7,1.6-14.8,9.5-19.3,16.2c-1.5,2.2-4,5.8-4.4,7.4c-0.3,1.4,0.3,3,0.4,4.8c0.5,8,0.9,16.1,2.6,23.6c0.9,3.7,2.9,9.5,5.2,11.4
	c3.2,2.6,7.6,1.7,10.3-1.3c-3.3-7.2-4.2-20.5,2.6-26.7c6.6-5.9,8.2,4.2,13.1,6.1c1.7,0.7,4.4,0.8,6.6-1.3
	c-0.9-8.2-5.2-14.2-1.5-21.9c2,1.2,2.3,3.8,3.1,5.7c3.8,9.5,7.5,20,19.5,18.6c1.9-0.2,3.9-0.9,5.3-2c1.5-1.2,1.6-3.4,3.7-4.6
	c1.6,1.7-0.8,5.4,1.3,7c2.7-0.2,4.5-0.5,5.7-2c2.2-2.8,0.8-8.5,4.2-10.1c1.3,3.5-2.5,8.4,2.8,8.7c1.4-2.9,0.4-8.3,3.1-10.9
	c5.7,3.4,4.1,18.1-1.1,20.8c-2.2,0.5-5.1-1.3-7.4-0.9c-1.7,0.3-2.5,2.2-3.7,2.8c-1.8,0.9-4.7,1.3-7.4,1.1c-1.2-0.1-2-0.6-3.3-0.6
	c-1.7,0-3.2,1.1-5,1.3c-6.6,0.7-10.5-2.7-14.9-7.6c-3.6,2.7-5.1,6.6-9.8,6.6c-0.1,0-2.8-0.4-3.9-0.9c-3-1.3-4.2-5-7-7
	c-3.3-0.3-4.6,3.6-3.5,6.1c1,2.3,6,6.6,9.2,7.9c2.4,1,5.8,1,6.1,3.1c0.5,3.2-1,7-2.6,9.6c-2.3-0.6-4.8-2.5-7.7-2.6
	c-5-0.2-10.6,7.2-14.4,7c-1.3-0.1-2.5-0.6-3.3-0.9c-2.1-0.8-5.2-3.3-6.8-6.6c-0.4-0.9-0.3-2-0.7-3.1c-0.3-0.8-1-1.6-1.3-2.4
	c-3.1-9.7-1.9-20.9-3.9-30.8c-4,1.9-6,6.4-9.4,8.1c-0.2,0.1,0.1-0.5-0.2-0.4l-0.4,0.6h0c-0.3,0-1.6,0.1-2,0.1
	c-4.7-1.1-6.5-7.8-6.1-12.9c0.2-2.5,1.1-5.3,1.7-7.7c0.7-2.3,1.8-4.9,2.8-7c1.4-2.6,3.1-5.4,5-6.8c1,6.5-6.5,12.2-5.2,19.7
	c0.3,1.7,1.9,4.1,3.7,4.4C1124,261.9,1127.9,255.4,1130,253.7"/>
<path class="st2" d="M1120.9,311.1c0.4,0.6,0.7,1.1,0.9,1.4C1121.3,311.9,1120.9,311.3,1120.9,311.1"/>
<polygon class="st2" points="1120.4,271.5 1120.4,271.6 1120.4,271.5 "/>
<polygon class="st2" points="1120.4,310.7 1120.4,310.7 1120.4,310.8 "/>
<path class="st2" d="M1172.4,140c-3.8-1.2-3.1-5.3-1.8-8.8c0.5-1.2,0.7-2.7,1.1-3.7c2.2-5,7.7-7.5,11-10.1
	c0.3-3.6,0.8-10.7,2.2-10.6c2.1,0.1,1.5,4.9,3.3,6.8c2.7-0.9,3-4.2,5.9-4.9c-0.7,2.8-1.7,5.6-3.3,8.6c-0.5,0.9-1.4,1.6-1.5,2.4
	c-0.4,1.8,0.8,4.5,1.1,7c0.4,3.5,3.4,5.2,3.8,8.1c0.3-1.3,0.4,0,1.1-0.2c-0.2,1-0.6-0.5-1.1,0.5c0.4,0.7,0.8,0.9,1.3,0.5
	c0.8-0.1,1.3-0.2,2.9,0.2c2.5,0.7,9.5-0.1,11.2-3.7c1.1-2.4,0.4-5.9,2.6-7.7c3.1,1.2-1.1,6.3,2.7,7c0.3,0.5-1.3-0.4-1.6-0.7
	c0.6,1.4,2,0.6,2.6,1.1c2,0.4,6.2,3.8,7.3,1.5c0.3-0.6-1.1-2.5-1.1-3.5c0-1,0.9-2.4,1.1-4c0.4-2.4,0.3-4.3,2-5.3
	c3.3,1.6,3.4,8.9,2,13.5l-0.7,2c-0.2,0.5-0.2,1.9-0.7,0.9c0.2,0.7-0.1,2.5-1.3,2.7c1.3,1-3.3,3.8-5.7,3.8c-3.3-0.1-6.8-3.7-9.5-2.4
	c-0.7,0.3-2.4,2.6-3.3,3.5c-0.6,0.6-0.8,1.5-1.8,1.1c2.6,1.5,7.1,2.5,9,5.3c-1.1,2-2.4,7.9-5.1,8.4c-2.8,0.5-4.7-2.6-7.7-2.9
	c-1.8,2.2-5.6,5.8-4.8,10.4c0.3,1.8,2.9,5.1,4.4,4.8c3.7-0.6,7.5-4.2,10.1-7.3c2.8-3.3,5.4-6.3,8.6-8.6c8.4-5.8,17.1-5.3,24.9-9.7
	c-1.5-2.4-5-2.8-7.7-4c1.6-6.1,0.8-12.2,7.1-13.2c4.2-0.7,12.4,1.9,15.2,5.5c0.8,1.1,1.9,3,2,4c0.2,2.3-2.2,4.5-2,6.6
	c0.4,3.4,8.3,5.3,10.4,2.6c-1.4-15-9.2-28.8-10.4-44.5c-0.3-4.4,1.2-7.5,1.5-11c0.1-0.7-0.3-1.1-0.2-1.8c0.3-1.8,1.6-5.9,3.5-6.4
	c1.8-0.5,4.2,1,6.2,2.4c5,3.8,10,7.2,13.7,11.7c5,6.1,8.7,14.7,9.7,23.8c1.3,11.7-1.1,24.8-4.9,36.2c-1.2,3.7-2.3,7.4-4.4,9.5
	c-0.2-4,1.8-8.4,3.1-13c1.8-6.3,3-11.7,2.7-19.8c-0.6-13-6.4-24.5-15-32c-2.9-2.5-6.5-5.4-9.9-6.6c-1,0,1.9,4.3,2.9,5.5
	c1.3,1.6,3.3,1.8,4,2.9c0.1,2.8-1.2,4-4.2,3.8c-2.9,1.9,0,7.6,1.1,11c3.5,10.9,8.5,26.9,0.9,36.8c-3.1,4.1-8.4,3.4-12.8,0.2
	c-1.8-1.3-3.5-4.2-5.1-4.4c-1.5-0.2-4.5,2.3-6.4,3.1c-2.5,1.1-4.1,2.1-6.4,2.9c-5.5,1.9-9.9,2.1-14.3,4.2c-3.2,1.5-7.3,3.1-9.7,6
	c-2.3,2.8-4.1,5.6-7.5,8.8c-2.4,2.3-7.8,7.3-11.7,4.6c-4.4-3.1-4.5-9.8-2.9-15.6c0.5-1.7,1.8-4.2,1.6-5.5c-0.4-1.6-4.6-1.9-4.9-3.8
	c-0.2-1.2,1.3-3.9,1.8-5.1c0.7-1.7,1.6-3.1,2.9-4c1.7,1.1,4.7,2.3,7.5,2.4c0.9-0.8,3.1-2.8,2.9-3.5c-0.4-1.1-2.6,0.1-3.1,0.2
	c-0.2-0.1-0.7-0.2-0.9-0.2c-4.7,0.5-7.6-1.5-9.7-4c-2-2.8-2.4-7.6-3.8-10.6c-1.4,0.4-1.3,1.9-2,2.9
	C1182,138,1175.4,140.9,1172.4,140 M1183.9,124.5c-2.7,1.5-5.7,2.7-7.7,4.9c-0.3,0.6,1.2,0.5,0.5,0.9c2.9-0.1,7-0.8,8.6-2.8
	C1185.3,125.9,1185,124.7,1183.9,124.5"/>
<path class="st2" d="M56.4,456.6c-0.6,11.2-5.3,18.2-13.4,18.2c-9.3,0-14.9-7.6-14.9-28.6c0-21,5.6-28.6,14.9-28.6
	c8.3,0,12.8,6.3,12.8,15.1h5.8c0-10.6-5.5-20-18.6-20s-20.7,10.3-20.7,33.5s7.4,33.5,20.7,33.5c11.6,0,18.4-8.3,19.3-23.1
	L56.4,456.6L56.4,456.6z"/>
<path class="st2" d="M71.4,479.5h5v-30.4c0-9.4,5.5-13.8,11.4-13.8c0.8,0,1.7,0.1,2.6,0.3v-5.5c-0.6-0.2-1.2-0.3-1.9-0.3
	c-5.5,0-9.9,3.3-11.9,8.7h-0.2v-8h-5L71.4,479.5L71.4,479.5z"/>
<path class="st2" d="M101.1,450.5c0.2-12,3.5-16.3,10.3-16.3s10.1,4.3,10.2,16.3H101.1L101.1,450.5z M121.4,463.5
	c-0.9,8.5-4.4,12.5-9.9,12.5c-5.2,0-10.1-4.3-10.1-18.2v-2.4h26v-2c0-16.2-4.7-23.7-15.3-23.7s-16.4,8.5-16.4,25.4
	c0,18.4,5.9,25.5,16,25.5c9,0,14.5-6.9,15.3-17.2L121.4,463.5L121.4,463.5z"/>
<path class="st2" d="M140.9,454.8c0-17.8,5.1-20.6,10.5-20.6s10.5,2.8,10.5,20.6s-5,20.7-10.5,20.7S140.9,472.7,140.9,454.8
	 M162.4,479.5h5v-65h-5v23h-0.2c-1.2-5.1-5.3-8.4-11.3-8.4c-10.6,0-15.5,8.6-15.5,25.2c0,16.6,4.8,25.3,15.5,25.3
	c5.7,0,10.4-3.5,11.8-9.1h-0.4v8.4V479.5z"/>
<path class="st2" d="M179.4,423.5h5v-9h-5V423.5z M179.4,478.5h5v-48h-5V478.5z"/>
<path class="st2" d="M198.4,471.3c0,6.5,2.8,8.5,10.2,8.5c1.8,0,3.2-0.2,3.8-0.6v-4.8c0,0-2.6,0.5-3.6,0.5c-3.5,0-5.2-1.3-5.4-5.1
	v-34.4h9v-5h-9v-13h-5v13h-7v5h7V471.3L198.4,471.3z"/>
<path class="st2" d="M279.4,450.6v1.9c0,15.2-5.1,23-14.4,23c-9.9,0-15.8-7.6-15.8-28.6s6-28.6,15.8-28.6c9.1,0,13.6,6.6,13.6,14.4
	h6.2c-0.8-11.2-6.6-19.3-19.8-19.3c-14.1,0-22,10.3-22,33.5c0,23.3,7.9,33.5,22,33.5c6.9,0,13-4.6,15.2-11.8h0.2v10h5v-33h-21v5
	L279.4,450.6L279.4,450.6z"/>
<path class="st2" d="M295.5,467.5c0,9,5,12.7,12.4,12.7c4.9,0,9.7-2.4,12.4-7.7h0.2v6h5v-48h-5v32.6c-0.2,7.4-4.5,12.3-10.7,12.3
	c-5.7,0-8.4-3-8.3-10.8v-33.2h-6L295.5,467.5L295.5,467.5z"/>
<path class="st2" d="M359.4,461.7c0,8.7-4.5,13.7-11.2,13.7c-4.7,0-7.6-3.8-7.6-9.5s2.8-8.6,8.2-10l4.5-1.2c2.2-0.5,5.3-1.6,5.8-3.2
	h0.2V461.7L359.4,461.7z M340.7,444.6c0-6.9,2.9-10.8,9.7-10.8c5.2,0,8.8,2.2,8.8,8.3c0,5.6-0.9,6.6-4.9,7.7l-10.8,2.9
	c-7.1,1.9-10.2,7-10.2,13.5c0,8.4,4,13.7,12.8,13.7c5.6,0,10.8-1.8,13.1-8.2h0.2v1.7c0,5,2.9,6,7.3,6c0.8,0,1.6-0.2,2.7-0.6v-4.1
	H368c-1.8,0-2.6-1.3-2.6-4v-28.6c0-7.6-3.4-12.8-12.6-12.8s-13.7,5.5-13.7,15.4L340.7,444.6L340.7,444.6z"/>
<path class="st2" d="M377.4,479.5h5v-30.4c0-9.4,5.5-13.8,11.4-13.8c0.8,0,1.7,0.1,2.6,0.3v-5.5c-0.6-0.2-1.2-0.3-1.9-0.3
	c-5.5,0-9.9,3.3-12,8.7h-0.2v-8h-5L377.4,479.5L377.4,479.5z"/>
<path class="st2" d="M425.4,461.7c0,8.7-4.5,13.7-11.2,13.7c-4.7,0-7.6-3.8-7.6-9.5s2.8-8.6,8.3-10l4.5-1.2c2.2-0.5,5.3-1.6,5.8-3.2
	h0.2V461.7L425.4,461.7z M407.4,444.6c0-6.9,2.9-10.8,9.6-10.8c5.1,0,8.7,2.2,8.7,8.3c0,5.6-0.8,6.6-4.8,7.7l-10.7,2.9
	c-7.1,1.9-10.1,7-10.1,13.5c0,8.4,4,13.7,12.8,13.7c5.6,0,10.7-1.8,13-8.2h-0.4v1.7c0,5,2.9,6,7.3,6c0.8,0,1.6-0.2,2.7-0.6v-4.1H434
	c-1.8,0-2.6-1.3-2.6-4v-28.6c0-7.6-3.8-12.8-14.2-12.8s-15.5,5.6-15.5,15.4L407.4,444.6L407.4,444.6z"/>
<path class="st2" d="M443.1,478.5h5.4v-32c0.1-7.5,4.3-12.3,10.7-12.3c5.5,0,8.3,3.3,8.3,9.9v35.4h5v-36.9c0-9.2-5-13.1-12.4-13.1
	c-4.9,0-9.7,2.5-12.4,7.9h-0.2v-7h-4V479L443.1,478.5z"/>
<path class="st2" d="M486.4,471.3c0,6.5,2.8,8.5,10.2,8.5c1.8,0,3.2-0.2,3.8-0.6v-4.8c0,0-2.3,0.5-3.4,0.5c-3.5,0-5.2-1.3-5.6-5.1
	v-34.4h9v-5h-9v-13h-5v13h-7v5h7V471.3L486.4,471.3z"/>
<path class="st2" d="M511.2,450.5c0.2-12,3.5-16.3,10.3-16.3s10.1,4.3,10.3,16.3H511.2L511.2,450.5z M531.4,463.5
	c-0.9,8.5-4.3,12.5-10,12.5c-5.2,0-10-4.3-10-18.2v-2.4h26v-2c0-16.2-4.8-23.7-15.3-23.7c-10.6,0-16.4,8.5-16.4,25.4
	c0,18.4,5.9,25.5,16,25.5c9,0,14.5-6.9,15.3-17.2L531.4,463.5L531.4,463.5z"/>
<path class="st2" d="M550.9,450.5c0.2-12,3.5-16.3,10.2-16.3s10.1,4.3,10.3,16.3H550.9L550.9,450.5z M571.4,463.5
	c-0.9,8.5-4.4,12.5-10,12.5c-5.2,0-10-4.3-10-18.2v-2.4h26v-2c0-16.2-4.8-23.7-15.3-23.7c-10.6,0-16.4,8.5-16.4,25.4
	c0,18.4,5.9,25.5,16,25.5c9,0,14.5-6.9,15.3-17.2L571.4,463.5L571.4,463.5z"/>
<path class="st2" d="M647.4,456.6c-0.7,11.2-5.3,18.2-13.5,18.2c-9.3,0-14.9-7.6-14.9-28.6c0-21,5.6-28.6,14.9-28.6
	c8.4,0,12.8,6.3,12.8,15.1h5.8c0-10.6-5.5-20-18.6-20c-13.2,0-20.7,10.3-20.7,33.5s7.4,33.5,20.7,33.5c11.6,0,18.4-8.3,19.3-23.1
	L647.4,456.6L647.4,456.6z"/>
<path class="st2" d="M665.3,454.8c0-15.3,4.7-20.6,10.8-20.6s10.8,5.3,10.8,20.6s-4.7,20.7-10.8,20.7S665.3,470.3,665.3,454.8
	 M659.5,454.8c0,16.8,6,25.3,16.6,25.3s16.6-8.5,16.6-25.3s-6-25.2-16.6-25.2S659.5,438.1,659.5,454.8"/>
<path class="st2" d="M702.4,479.5h5v-30.4c0-9.4,5.5-13.8,11.4-13.8c0.8,0,1.7,0.1,2.6,0.3v-5.5c-0.6-0.2-1.2-0.3-1.9-0.3
	c-5.5,0-9.9,3.3-11.9,8.7h-0.2v-8h-5V479.5L702.4,479.5z"/>
<path class="st2" d="M754,454.9c0,17.8-5.1,20.6-10.5,20.6s-10.5-2.8-10.5-20.6c0-8.3,0.7-13,3.1-16.4c1.8-2.6,4.5-4.3,7.6-4.3
	C748.9,434.2,754,437.4,754,454.9 M727.4,494.5h6v-23h-0.3c1.2,5.3,5.3,8.5,11.3,8.5c10.6,0,15.4-8.5,15.4-25.2s-4.6-25.2-15.3-25.2
	c-6.2,0-10.2,3.5-11.9,7.9h-0.1v-7h-5L727.4,494.5L727.4,494.5z"/>
<path class="st2" d="M772.7,454.8c0-15.3,4.7-20.6,10.8-20.6s10.8,5.3,10.8,20.6s-4.7,20.7-10.8,20.7S772.7,470.3,772.7,454.8
	 M766.9,454.8c0,16.8,6,25.3,16.6,25.3s16.6-8.5,16.6-25.3s-6-25.2-16.6-25.2S766.9,438.1,766.9,454.8"/>
<path class="st2" d="M809.4,479.5h5v-30.4c0-9.4,5.5-13.8,11.4-13.8c0.8,0,1.7,0.1,2.6,0.3v-5.5c-0.6-0.2-1.2-0.3-1.9-0.3
	c-5.5,0-9.9,3.3-11.9,8.7h-0.2v-8h-5L809.4,479.5L809.4,479.5z"/>
<path class="st2" d="M857.4,461.7c0,8.7-4.5,13.7-11.2,13.7c-4.7,0-7.6-3.8-7.6-9.5s2.8-8.6,8.2-10l4.6-1.2c2.2-0.5,5.3-1.6,5.8-3.2
	h0.2V461.7L857.4,461.7z M839.4,444.6c0-6.9,2.8-10.8,9.3-10.8c4.9,0,8.3,2.2,8.3,8.3c0,5.6-0.8,6.6-4.6,7.7l-10.2,2.9
	c-6.8,1.9-9.7,7-9.7,13.5c0,8.4,3.8,13.7,12.2,13.7c5.3,0,10.2-1.8,12.4-8.2h0.3v1.7c0,5,2.9,6,7.3,6c0.8,0,1.6-0.2,2.7-0.6v-4.1
	h-1.7c-1.9,0.4-3.3-3.6-3.3-3.6v-29c0-7.6-3.6-12.8-13.6-12.8c-10,0-14.8,5.6-14.8,15.4L839.4,444.6L839.4,444.6z"/>
<path class="st2" d="M877.4,471.3c0,6.5,2.8,8.5,10.2,8.5c1.8,0,3.2-0.2,3.8-0.6v-4.8c0,0-2.2,0.5-3.3,0.5c-3.6,0-5.2-1.3-5.7-5.1
	v-34.4h9v-5h-9v-13h-5v13h-7v5h7L877.4,471.3L877.4,471.3z"/>
<path class="st2" d="M899.4,423.5h5v-9h-5V423.5z M899.4,478.5h5v-48h-5V478.5z"/>
<path class="st2" d="M919.5,454.8c0-15.3,4.7-20.6,10.8-20.6s10.8,5.3,10.8,20.6s-4.7,20.7-10.8,20.7S919.5,470.3,919.5,454.8
	 M913.7,454.8c0,16.8,6,25.3,16.6,25.3s16.6-8.5,16.6-25.3s-6-25.2-16.6-25.2S913.7,438.1,913.7,454.8"/>
<path class="st2" d="M955.4,478.5h6v-32c0-7.5,4.2-12.3,10.6-12.3c5.6,0,8.3,3.3,8.4,9.9v35.4h5v-36.9c0-9.2-5-13.1-12.4-13.1
	c-4.9,0-9.7,2.5-12.4,7.9h-0.2v-7h-5L955.4,478.5L955.4,478.5z"/>
<polygon class="st2" points="34.4,388.5 40.4,388.5 40.4,328.5 57.4,328.5 57.4,323.5 18.4,323.5 18.4,328.5 34.4,328.5 "/>
<path class="st2" d="M63.4,387.5h6v-31.8c-0.3-7.5,3.9-12.4,10.3-12.4c5.5,0,8.3,3.3,8.7,9.9v35.2h5v-36.8c0-9.2-5.1-13.1-12.7-13.1
	c-5.9,0-10.7,2.9-12.1,7.9h-0.2v-23h-5V387.5L63.4,387.5z"/>
<path class="st2" d="M108.3,359.5c0.2-12,3.5-16.3,10.3-16.3s10.1,4.4,10.3,16.3H108.3L108.3,359.5z M128.4,372.5
	c-0.9,8.4-4.3,12.5-10,12.5c-5.2,0-10-4.3-10-18.2v-2.3h26v-2c0-16.2-4.7-23.6-15.3-23.6s-16.4,8.5-16.4,25.4
	c0,18.3,5.9,25.5,16,25.5c9,0,14.5-6.9,15.3-17.2L128.4,372.5L128.4,372.5z"/>
<path class="st2" d="M159.2,388.5h6.1l5.3-19h22.8l5.3,19h6.1l-19.2-65h-7.3L159.2,388.5L159.2,388.5z M171.9,364.5l10.1-37h0.2
	l10.1,37H171.9z"/>
<path class="st2" d="M210.4,388.5h5v-30.4c0-9.4,5.9-13.8,12.2-13.8c0.9,0,1.8,0.1,2.8,0.3v-5.5c-0.7-0.2-1.4-0.3-2-0.3
	c-5.9,0-10.6,3.3-12.8,8.7h-0.2v-7h-5V388.5L210.4,388.5z"/>
<path class="st2" d="M258.4,370.7c0,8.7-4.5,13.7-11.2,13.7c-4.7,0-7.6-3.8-7.6-9.5s2.8-8.6,8.3-10l4.6-1.2c2.2-0.5,5.3-1.5,5.8-3.2
	h0.2V370.7L258.4,370.7z M240.4,354.6c0-7,2.9-10.9,9.6-10.9c5.1,0,8.7,2.2,8.7,8.3c0,5.6-0.8,6.6-4.8,7.7l-10.7,2.9
	c-7.1,1.9-10.1,7-10.1,13.5c0,8.4,4,13.7,12.8,13.7c5.6,0,10.7-1.8,13-8.2h-0.4v1.6c0,5,2.8,6,7.3,6c0.7,0,1.6-0.2,2.7-0.5v-4.1H267
	c-1.7,0-2.6-1.3-2.6-4v-28.6c0-7.6-3.8-12.8-14.2-12.8s-15.5,5.6-15.5,15.4L240.4,354.6L240.4,354.6z"/>
<path class="st2" d="M280.8,364c0-17.8,5-20.6,10.5-20.6s10.5,2.8,10.5,20.6s-5.1,20.7-10.5,20.7S280.8,381.9,280.8,364
	 M275.4,388.5h5v-8h0c1.5,5.2,6.1,8.7,11.8,8.7c10.6,0,15.4-8.5,15.4-25.3s-4.8-25.2-15.4-25.2c-6,0-10.1,3.3-11.3,8.7h0.5v-24h-6
	v64.6V388.5z"/>
<rect x="341.4" y="323.5" class="st2" width="6" height="65"/>
<path class="st2" d="M358.4,387.5h5v-31.8c0.2-7.5,4.5-12.4,10.9-12.4c5.5,0,8.3,3.3,8.1,9.9v35.2h6v-36.8c0-9.2-5-13.1-12.4-13.1
	c-4.9,0-9.7,2.5-12.4,7.9h-0.2v-7h-5L358.4,387.5L358.4,387.5z"/>
<polygon class="st2" points="407.9,388.5 414,388.5 426.7,340.5 420.7,340.5 411.1,381.5 410.9,381.5 400.5,340.5 394.5,340.5 "/>
<path class="st2" d="M437,359.5c0.2-12,3.5-16.3,10.3-16.3s10.1,4.4,10.3,16.3H437L437,359.5z M457.4,372.5
	c-0.9,8.4-4.3,12.5-10,12.5c-5.2,0-10-4.3-10-18.2v-2.3h26v-2c0-16.2-4.8-23.6-15.3-23.6c-10.5,0-16.4,8.5-16.4,25.4
	c0,18.3,5.9,25.5,15.9,25.5c9,0,14.5-6.9,15.3-17.2L457.4,372.5L457.4,372.5z"/>
<path class="st2" d="M487.7,367c4.8,1.9,6.5,4.6,6.5,8.9c0,5.3-3.7,8.6-9.5,8.6c-6.2,0-9.3-3.6-9.3-10.7v-1.3h-6v1.5
	c0,10.9,4.9,14.9,14.8,14.9s14.9-6.1,14.9-14.3c0-5.3-2.5-9.8-9-12.2l-7.9-3c-5.5-2.1-6.6-4.7-6.6-8c0-4.8,2.5-8.2,8.8-8.2
	c5,0,7.9,2.6,7.9,8.9v1.4h6v-1.4c0-8.8-4.2-13.4-13.3-13.4c-8.2,0-14.4,4-14.4,13.9c0,4.8,2.5,8.8,9.3,11.4L487.7,367L487.7,367z"/>
<path class="st2" d="M510.4,380.3c0,6.5,2.8,8.5,10.2,8.5c1.8,0,3.2-0.2,3.8-0.5v-4.6c0,0-2.6,0.5-3.7,0.5c-3.5,0-5.2-1.3-5.3-5.1
	v-34.6h9v-5h-9v-13h-5v13h-7v5h7V380.3L510.4,380.3z"/>
<path class="st2" d="M530.4,387.5h6v-31.8c-0.1-7.5,4.3-12.4,9.7-12.4c4.9,0,7.5,3,7.3,8.7v36.4h6v-32.4c0-7.5,4.3-12.4,9.6-12.4
	c4.8,0,7.4,3,7.4,8.7v36h5v-37.2c0,0-3.9-12.4-10.7-12.4c-6.2,0-10.1,3.1-12.3,8.7h-0.2c-0.7-5.1-4.3-8.7-10.1-8.7
	c-5.3,0-9.7,2.5-12.3,7.7h-0.6v-7h-5L530.4,387.5L530.4,387.5z"/>
<path class="st2" d="M597.2,359.5c0.2-12,3.5-16.3,10.3-16.3s10.1,4.4,10.3,16.3H597.2L597.2,359.5z M617.4,372.5
	c-0.9,8.4-4.3,12.5-10,12.5c-5.2,0-10-4.3-10-18.2v-2.3h26v-2c0-16.2-4.8-23.6-15.3-23.6s-16.4,8.5-16.4,25.4
	c0,18.3,5.9,25.5,16,25.5c8.9,0,14.5-6.9,15.3-17.2L617.4,372.5L617.4,372.5z"/>
<path class="st2" d="M632.4,387.5h6v-31.8c-0.4-7.5,3.8-12.4,10.2-12.4c5.5,0,8.3,3.3,8.8,9.9v35.2h5v-36.8c0-9.2-5-13.1-12.4-13.1
	c-4.9,0-9.7,2.5-12.4,7.9h-0.2v-7h-5L632.4,387.5L632.4,387.5z"/>
<path class="st2" d="M675.4,380.3c0,6.5,2.8,8.5,10.2,8.5c1.8,0,3.2-0.2,3.8-0.5v-4.6c0,0-2.4,0.5-3.5,0.5c-3.5,0-5.2-1.3-5.5-5.1
	v-34.6h9v-5h-9v-13h-5v13h-7v5h7V380.3L675.4,380.3z"/>
<path class="st2" d="M749.4,376.2c-2.6,5-8.3,8.2-13.6,8.2c-7.2,0-13.2-5.2-13.2-12.9c0-5.1,2.5-10.2,11.6-16.5L749.4,376.2
	L749.4,376.2z M729.5,335.2c0-4.2,3.2-7.3,7.5-7.3s7.3,3.1,7.3,7.3c0,3.5-1.5,7.7-8.7,13.2C732,343.4,729.6,338.6,729.5,335.2
	 M758.1,388.5h6.2l-8.6-12.1c2.9-5.2,4.6-11.3,4.6-16.9h-5.5c-0.1,4-0.7,8.3-2.4,12.3l-14.1-19.7c9.3-6.6,11.5-11.5,11.5-16.8
	c0-7.2-4.9-12.1-12.5-12.1s-13.4,4.2-13.4,12.1c0,5.1,2.8,10,7.5,16.1l-5.4,4.1c-6,4.6-9.4,10-9.4,16.8c0,9.6,7,17.3,18.3,17.3
	c8.1,0,13.7-3.6,17.4-9.1L758.1,388.5L758.1,388.5z"/>
<polygon class="st2" points="793.4,388.5 826.4,388.5 826.4,383.5 799.4,383.5 799.4,356.5 824.4,356.5 824.4,352.5 799.4,352.5 
	799.4,328.5 825.4,328.5 825.4,323.5 793.4,323.5 "/>
<polygon class="st2" points="856.1,388.5 862.2,388.5 849.3,363.8 861.7,340.5 855.5,340.5 846.1,359.5 836.6,340.5 830.4,340.5 
	842.8,363.8 829.9,388.5 836,388.5 846.1,367.9 "/>
<path class="st2" d="M894.6,364.1c0,17.8-5.1,20.6-10.5,20.6s-10.5-2.8-10.5-20.6c0-8.3,0.7-13.1,3.1-16.4c1.8-2.6,4.5-4.3,7.6-4.3
	C889.5,343.4,894.6,346.6,894.6,364.1 M868.4,404.5h4v-24h1.3c1.2,5.5,5.3,8.7,11.3,8.7c10.6,0,15.4-8.5,15.4-25.2
	s-4.6-25.3-15.3-25.3c-6.2,0-10.2,3.5-11.9,7.7h0.3v-6h-5V404.5L868.4,404.5z"/>
<path class="st2" d="M912.7,364c0-15.4,4.7-20.6,10.8-20.6s10.8,5.3,10.8,20.6s-4.7,20.7-10.8,20.7S912.7,379.5,912.7,364
	 M906.9,364c0,16.8,6,25.2,16.6,25.2s16.6-8.5,16.6-25.2s-6-25.2-16.6-25.2S906.9,347.3,906.9,364"/>
<path class="st2" d="M948.4,388.5h5v-30.4c0-9.4,5.9-13.8,12.2-13.8c0.9,0,1.8,0.1,2.8,0.3v-5.5c-0.7-0.2-1.3-0.3-2-0.3
	c-5.9,0-10.6,3.3-12.8,8.7h-0.2v-7h-5L948.4,388.5L948.4,388.5z"/>
<path class="st2" d="M976.4,380.3c0,6.5,2.8,8.5,10.2,8.5c1.8,0,3.2-0.2,3.8-0.5v-4.6c0,0-2.3,0.5-3.4,0.5c-3.6,0-5.2-1.3-5.6-5.1
	v-34.6h9v-5h-9v-13h-5v13h-7v5h7L976.4,380.3L976.4,380.3z"/>
<path class="st2" d="M48.4,234.5h-7v-8h7V234.5z M36.4,234.5h-7v-8h7V234.5z M70.2,262.7c-0.8,4.8-4.3,7.8-9.3,7.8H30.3
	c-7.8,0-13.7-3.1-17.7-9.4c-3.3-5.2-5.1-12-5.4-20.4l-0.3-7.2h5.8l0.3,7.3c0.3,9.1,2.7,15.7,7.2,19.7c3,2.7,6.4,4,10.2,4h28.8
	c2.7,0,4-1.9,4-5.6c0-2.2-0.1-10.4-0.4-24.4H70c0.1,5.1,0.2,14.8,0.2,28.8"/>
<polygon class="st2" points="90.9,270.5 84.4,270.5 84,205.5 90.4,205.5 "/>
<path class="st2" d="M118.4,261.8c0,8.7-2.4,15.9-7.2,21.6c-4.7,5.7-11,8.9-18.8,9.5c-0.7-1.2-1.7-3.3-3-6.2
	c6.5,0,11.7-2.3,15.8-6.8c4.1-4.5,6.2-10.3,6.2-17l-0.1-28.3h7.1v27V261.8z"/>
<path class="st2" d="M164.4,270.5H131l2-6h25.6c-0.2-6.3-1.7-11.6-4.6-16.1c-2.6-4.2-5.4-6.3-8.5-6.3v-5.8c5.2,0,9.6,2.8,13.3,8.4
	c4,6.3,6,14.9,6,25.9"/>
<path class="st2" d="M199.5,270.5h-8.9c-3,0-5.5-1-7.5-2.9c-2.3-2.1-3.6-5.1-3.6-8.9l-0.3-53.2h7.3l0.3,53.1c0,3.5,1.7,5.4,4.9,5.9
	h7.8L199.5,270.5L199.5,270.5z"/>
<path class="st2" d="M263.4,264.6c-0.1-4.5-0.7-8.4-1.7-11.7c-2.4-8-6.6-12.1-12.7-12.5c-11.9-0.7-21.4,6.9-28.6,23.1v1.1
	L263.4,264.6L263.4,264.6z M289.5,270.5h-91v-6h16v-21h6v9c3.7-6.5,8.5-11.5,14.5-14.8c5.3-2.9,10.1-4.2,14.7-3.7
	c7.8,0.8,13.4,4.3,16.9,10.6c2.5,4.5,4.7,19.9,4.7,19.9h18.2L289.5,270.5L289.5,270.5z"/>
<path class="st2" d="M307.7,257.5c0,8-4.8,13.1-13.7,13.1h-6.6v-6h6.5c3.9,0,6.9-2.3,6.9-6.9c0-6.4-0.1-15.1-0.2-26
	c-0.1-12.6-0.2-21.3-0.2-26.1h6.9c0,4.6,0.1,13.3,0.2,26C307.6,242.4,307.7,251.1,307.7,257.5"/>
<polygon class="st2" points="327.9,270.5 321.4,270.5 321,205.5 327.4,205.5 "/>
<path class="st2" d="M387.4,234.5h-7v-8h7V234.5z M410.5,264.4c0,7.8-2.6,14.5-7.8,20c-5.1,5.5-11.5,8.3-18.8,8.3
	s-13.5-2.8-18.8-8.3c-5.2-5.5-7.8-12.2-7.8-20.1c-0.1-5.2-0.3-12-0.5-20.8h6.9c0,1.3,0.1,8.2,0.3,20.9c0,5.9,1.9,11,5.8,15.1
	c3.9,4.1,8.5,6.2,14.1,6.2s10.2-2.1,14.1-6.3c3.9-4.2,5.8-9.2,5.5-15.2v-19.7h7L410.5,264.4L410.5,264.4z"/>
<path class="st2" d="M443.5,270.5h-8.9c-3,0-5.5-1-7.5-2.9c-2.3-2.1-3.6-5.1-3.6-8.9l-0.3-53.2h7.3l0.3,53.1c0,3.5,1.7,5.4,4.9,5.9
	h7.8L443.5,270.5L443.5,270.5z"/>
<path class="st2" d="M479,261.1c0-4.1-1-7.5-3.1-10c-1.9-2.1-4.2-3.1-6.9-3.1s-5.1,1-6.8,3.1c-1.9,2.4-2.8,5.8-2.8,10
	s1.1,7.5,3.2,10c1.9,2.1,4.2,3.2,6.9,3.2s5-1.1,6.7-3.2C478.1,268.7,479,265.3,479,261.1 M496.5,270.5h-12.2
	c-2.7,5.7-7.6,8.5-14.8,8.5s-12-2.8-15.1-8.5h-13v-6h10.8c-0.1-1-0.2-2.1-0.2-3.1c0-10.9,6.2-17.5,16.7-17.5c5.3,0,9.7,1.8,12.8,5.4
	c3,3.4,4.5,7.4,4.5,12.1c0,1,0,2.1-0.1,3.1h10.2L496.5,270.5L496.5,270.5z"/>
<path class="st2" d="M525.4,226.5h-8v-8h8V226.5z M512.4,226.5h-7v-8h7V226.5z M537.5,270.5h-9c-3,0-5.6-1.2-7.7-3.6
	c-1.2-1.3-2-2.6-2.5-4c-1.9,4.6-7.1,7.3-12.6,7.6h-11.2v-6h3.5c3-0.1,4.9-0.1,5.7-0.1c1.9,0,3.6-0.5,5.2-1.5c2-1.3,3-3.1,3-5.4
	c0.2,1.6,0.2-6.1-0.1-23h6.9c0,6.4,0.1,12.7,0.2,18.9c0.1,3.5,1.1,6.3,3.1,8.4c1.7,1.8,3.6,2.7,5.5,2.7h10.1L537.5,270.5
	L537.5,270.5z"/>
<path class="st2" d="M557.4,226.5l-18.2,0l1.9-4h5.2c-1.3-1.4-2-3.2-2-5.3c0-4.4,3.2-8,7.5-8c2.1,0,3.8,0.9,5.2,2.7l-1.6,2.4
	c-1-1.2-2.2-1.8-3.5-1.8c-2.4,0-3.6,1.7-3.5,5.2c0,2.9,2.3,4.9,4.8,4.8h4.2L557.4,226.5L557.4,226.5z M559.8,257.5
	c0,8-4.8,13.1-13.7,13.1h-10.7v-6h11c3.9,0,6.8-2.3,6.8-6.8c0,0.9-0.1-6.8-0.3-23.2h6.6c0.2,15.9,0.3,23.7,0.3,23.6"/>
<polygon class="st2" points="579.9,270.5 573.4,270.5 573,205.5 579.4,205.5 "/>
<path class="st2" d="M619.4,264.5l-0.2-16.8c-0.1-5.9-2.7-8.9-7.9-8.9c-2.7,0-4.9,1.1-6.8,3.4c-2.1,2.5-3.3,5.9-3.3,10.3
	c0,6.7,3.7,12,9.7,12L619.4,264.5L619.4,264.5z M626.4,261.2c0,8.7-2.4,15.9-7.1,21.6c-4.7,5.7-11.1,8.9-18.9,9.6l-3-6.3
	c5,0,9.4-1.4,13.2-4.3c3.5-2.8,6.1-6.5,7.6-11.3h-9c-4.6,0-8.3-1.7-11.3-5.2c-2.9-3.5-4.1-7.9-4.1-12.8c0.1-6.5,2.3-11.5,6.2-14.9
	c3.1-2.7,6.7-4,10.8-4c10.4,0,15.7,5.3,15.7,15.9L626.4,261.2L626.4,261.2z"/>
<path class="st2" d="M684.4,261.8c0,8.7-2.4,15.9-7.2,21.6c-4.7,5.7-11,9-18.8,9.6c-0.7-1.2-1.7-3.3-3-6.2c6.5,0,11.7-2.3,15.8-6.8
	c4.1-4.5,6.2-10.3,6.2-17l-0.1-28.3h6.1l1,27.1V261.8z"/>
<path class="st2" d="M716.5,270.5H707c-2.5,0-4.7-1-6.5-2.9c-2-2.1-3.1-5.1-3.1-8.9l-0.3-53.2h6.3l0.3,53.1c0,3.5,1.7,5.4,4.9,5.9
	h7.8L716.5,270.5L716.5,270.5z"/>
<path class="st2" d="M752.7,261.2c0-4.1-1-7.5-3.1-10c-1.9-2.1-4.2-3.1-6.9-3.1s-5.1,1-6.8,3.1c-1.9,2.4-2.8,5.7-2.8,10
	s1.1,7.5,3.2,9.9c1.9,2.1,4.2,3.2,6.9,3.2s5-1.1,6.7-3.2C751.7,268.7,752.7,265.5,752.7,261.2 M770.5,270.5h-12.2
	c-2.7,5.7-7.6,8.5-14.9,8.5s-12-2.8-15-8.5h-13v-6h10.8c-0.1-1-0.2-2.1-0.2-3.1c0-10.9,6.2-17.5,16.7-17.5c5.3,0,9.6,1.8,12.8,5.4
	c3,3.4,4.5,7.4,4.5,12.1c0,1,0,2.1-0.1,3.1h10.2L770.5,270.5L770.5,270.5z"/>
<path class="st2" d="M798.4,226.5h-7v-8h7V226.5z M792.4,215.5h-7v-8h7V215.5z M786.4,226.5h-7v-8h7V226.5z M810.4,270.5h-9
	c-3,0-5.5-1.2-7.7-3.6c-1.2-1.3-2-2.6-2.5-4c-1.9,4.6-7.1,7.3-12.6,7.6h-11.2v-6h9.2c1.9,0,3.6-0.5,5.2-1.5c2-1.4,3-3.2,3-5.5
	c0.2,1.6,0.2-6.1-0.1-23h6.9c0,6.4,0.1,12.7,0.2,18.9c0.1,3.5,1.1,6.3,3.1,8.4c1.7,1.8,3.6,2.7,5.5,2.7h10.1V270.5z"/>
<path class="st2" d="M839.4,226.5h-8v-8h8V226.5z M826.4,226.5h-7v-8h7V226.5z M851.4,270.5h-9c-3,0-5.5-1.2-7.7-3.6
	c-1.2-1.3-2-2.6-2.5-4c-1.9,4.6-7.1,7.3-12.6,7.6h-11.2v-6h3.5c3-0.1,4.9-0.1,5.7-0.1c1.9,0,3.6-0.5,5.2-1.5c2-1.3,3-3.1,3-5.4
	c0.2,1.6,0.2-6.1-0.1-23h6.9c0,6.4,0.1,12.7,0.2,18.9c0.1,3.5,1.1,6.3,3.1,8.4c1.7,1.8,3.6,2.7,5.5,2.7h10.1L851.4,270.5
	L851.4,270.5z"/>
<path class="st2" d="M924.2,259.1c0,7.9-5.6,13.3-13.4,13.3c-3.4,0-6.1-0.6-8-1.7c-2.2-1.3-4-3.4-5.5-6.5c-1.8,5.3-6,8-12.6,8
	c-3.3,0-6-0.5-7.9-1.5c-1.7-0.9-3.1-2.3-4.3-4.2v4.1h-23v-6h16v-15c0-3.2,0-7.2-0.1-12h7.1v18.1c0.2,7.7,4.2,11.5,12.1,11.5
	c4,0,7-2.4,7-7.1c0-2.2-0.1-9.7-0.3-22.6h7.1c0,3.9,0,9.9,0.1,18.1c0.1,3.8,1.4,6.7,3.7,8.7c2.1,1.9,5.1,2.8,8.9,2.8
	c4,0,7.3-2.5,7.3-7.1c0-2-0.1-10.5-0.3-25.6h5.9c0.1,15.9,0.2,24.1,0.2,24.8"/>
<path class="st2" d="M947.4,257.9c-2.1,1.4-4.4,1.4-7.3,1.4c0-8.8-0.2-26.7-0.5-53.8h6.8L947.4,257.9L947.4,257.9z M966.4,250.4
	c0,6.3-2.4,11.3-7.4,15.3c-4.8,3.9-11.1,5.8-18.8,5.8h-4.9v-7h4.1c0,0,8.7-1,12.2-2.8c4.8-2.5,7.1-6.5,7.1-11.8
	c0-1.4-0.2-16.1-0.5-44.3h7l1,45.7V250.4z M950,291.5h-15.5l1.7-3h4.4c-1.2-1.4-1.7-2.9-1.7-4.7c0-3.9,2.7-6.9,6.5-6.9
	c1.8,0,3.2,0.8,4.5,2.3l-1.4,2.1c-0.9-1.1-1.9-1.7-2.9-1.7c-2,0-3.1,1.5-3.1,4.5c0,2.8,1.4,4.3,4.2,4.3h3.4L950,291.5L950,291.5z"/>
<polygon class="st2" points="985.9,270.5 979.4,270.5 979,205.5 985.4,205.5 "/>
<path class="st2" d="M364.4,98.5h-7v-8h7V98.5z M352.4,98.5h-7v-8h7V98.5z M363.4,132.5l-0.1-14.9c-2.4-4.1-5.5-6.2-9.4-6.2
	c-2.5,0-4.6,1.1-6.2,3.3c-1.9,2.3-2.8,5.7-2.8,10c0,2.3,0.3,3.9,0.8,5c0.8,1.8,2.4,2.7,4.8,2.7L363.4,132.5L363.4,132.5z
	 M384.5,150.5h-9.9c-7.2,0-10.7-3.7-10.6-11h-14.8c-7.6,0-11.4-4.8-11.4-14.2c0-6.3,1.6-11.1,4.9-14.4c2.6-2.7,5.8-4.1,9.5-4.1
	c4.7,0,9,2.5,11,5.7h0.3v-5h7v32.3c0,3.1,1.4,4.7,4.1,4.7h9.9L384.5,150.5L384.5,150.5z"/>
<path class="st2" d="M414.4,165.5h-7v-8h7V165.5z M402.4,165.5h-8v-8h8V165.5z M426.4,150.5h-9c-3,0-5.6-1.2-7.7-3.6
	c-1.2-1.3-2-2.6-2.5-4c-1.9,4.6-7.1,7.3-12.6,7.6h-13.2v-6h11.4c2,0,3.7-0.5,5.4-1.5c2.2-1.4,3.2-3.3,3.2-5.7
	c0.2,1.7,0.2-6.3-0.1-23.8h7.1c0,6.6,0.1,13.1,0.2,19.6c0.1,3.6,1.1,6.5,3.2,8.7c1.8,1.9,3.7,2.8,5.7,2.8h9L426.4,150.5L426.4,150.5
	z"/>
<path class="st2" d="M442.4,165.5h-7v-8h7V165.5z M448.5,137.5c0,8-4.8,13.1-13.7,13.1h-11.3v-7h11c3.9,0,6.8-2.3,6.8-6.8
	c0,0.9-0.1-6.8-0.3-23.2h7.3c0.2,15.9,0.3,23.7,0.3,23.6"/>
<path class="st2" d="M493.4,144.5c-0.1,1-0.1,3.1-0.1,6h-8.2c-4,0-7.2-2.1-9.6-6.3c-0.5,8-3.3,14.5-8.1,19.7c-4.8,5.2-11,8-18.5,8.6
	c-0.7-1.2-1.8-3.4-3.1-6.3c6.7,0,12.1-2.3,16.4-7c4.1-4.6,6.2-10.3,6.2-17.1l-0.1-28.7h7.1l0.1,21.5c0.1,2.8,1.1,5.1,3,7
	c1.8,1.6,3.5,2.4,5.4,2.4L493.4,144.5L493.4,144.5z"/>
<path class="st2" d="M542.8,120.3c-1.8-1.1-3.5-2.2-5.2-3.3c-4.3-2-9.1-3-14.5-3c-4.6,0-8.5,0.5-11.9,1.4c-2.3,0.7-5.1,1.9-8.2,3.6
	c7.8,2.1,15.6,8.3,23.1,18.7C532.8,133.2,538.5,127.3,542.8,120.3 M555.4,150.5h-19.9c-4,0-7.4-1.5-10.3-4.5
	c-5.9,3-11.7,4.5-17.3,4.5h-16.6v-6h16.5c4.3,0,8.8-1,13.5-3.1c-4-4.6-7.4-8-10.3-10c-4.3-3.1-8.8-4.9-13.7-5.2v-7.7
	c5.9-5.3,14.4-7.9,25.4-7.8c7.3,0.1,14,1.6,20,4.7c3.7,1.8,6.4,3.7,8.2,5.7c-4.9,8.8-11.9,16.1-20.9,22c1.1,0.8,2.4,1.2,4.1,1.3
	h21.1L555.4,150.5L555.4,150.5z"/>
<path class="st2" d="M573.3,137.5c0,8-4.8,13.1-13.7,13.1h-6.2v-6h6.5c3.9,0,6.9-2.3,6.9-6.9c0-6.4-0.1-15.1-0.2-26
	c-0.1-12.7-0.2-21.4-0.2-26.1h6.5c0,4.6,0.1,13.3,0.2,26C573.2,122.4,573.3,131.1,573.3,137.5"/>
<polygon class="st2" points="593.9,150.5 587.4,150.5 587,85.5 593.4,85.5 "/>
<path class="st2" d="M649.4,98.5h-7v-8h7V98.5z M637.4,98.5h-7v-8h7V98.5z M648.4,132.5l-0.1-14.9c-2.4-4.1-5.5-6.2-9.4-6.2
	c-2.5,0-4.6,1.1-6.2,3.3c-1.9,2.3-2.8,5.7-2.8,10c0,2.3,0.3,3.9,0.8,5c0.8,1.8,2.4,2.7,4.8,2.7L648.4,132.5L648.4,132.5z
	 M669.5,150.5h-10.3c-7.2,0-10.7-3.7-10.6-11h-14.8c-7.6,0-11.4-4.8-11.4-14.2c0-6.3,1.6-11.1,4.9-14.4c2.6-2.7,5.8-4.1,9.4-4.1
	c4.7,0,9,2.5,11,5.7h0.7v-5h7v32.3c0,3.1,1.4,4.7,4.1,4.7h9.9L669.5,150.5L669.5,150.5z"/>
<path class="st2" d="M761.4,143.5v7h-10.1c-4.5,0-7.8-2.5-9.9-7.5c-1.6,5.5-6.7,8.9-12.8,8.9c-3.4,0-6.1-0.6-8-1.7
	c-2.2-1.3-4-3.4-5.5-6.4c-1.8,5.3-6,8-12.6,8c-3.3,0-6-0.5-7.9-1.5c-1.6-0.9-3-2.2-4.2-4.1v4.4h-22v-6h15v-16.1
	c0-3.2,0-7.2-0.1-11.9h7.1v18.1c0.1,7.6,4.2,11.5,12.2,11.5c4,0,7-2.4,7-7c0-2.2-0.1-9.7-0.3-22.5h7.1c0,3.9,0,9.9,0.1,18.1
	c0.1,3.8,1.3,6.7,3.7,8.7c2.2,1.9,5.2,2.8,8.9,2.8c4,0,7.3-2.5,7.3-7c0-2-0.1-10.4-0.3-25.5h5.9c0,4.3,0.1,10.9,0.2,19.8
	c0.1,3.1,1.2,5.7,3.2,7.7c1.7,1.7,3.6,2.5,5.5,2.5L761.4,143.5L761.4,143.5z"/>
<path class="st2" d="M835.2,138.5c0,7.9-5.6,13.3-13.3,13.3c-3.4,0-6.2-0.6-8-1.7c-2.2-1.3-4-3.4-5.5-6.4c-1.8,5.3-6,8-12.6,8
	c-3.3,0-6-0.5-7.9-1.5c-1.7-0.9-3.1-2.3-4.3-4.2v4.8h-23v-6h16v-16c0-3.2,0-7.2-0.1-12h7.1v18.1c0.2,7.7,4.2,11.5,12.2,11.5
	c4,0,7-2.4,7-7c0-2.2-0.1-9.7-0.3-22.6h7.1c0,3.9,0,9.9,0.1,18.1c0.1,3.8,1.3,6.7,3.7,8.7c2.2,1.9,5.1,2.8,8.9,2.8
	c4,0,7.3-2.5,7.3-7c0-2-0.1-10.5-0.3-25.6h5.5c0.1,15.9,0.2,24.1,0.2,24.8"/>
<path class="st2" d="M874.4,143.5v-16.8c0-5.9-2.9-8.9-8-8.9c-2.7,0-4.9,1.1-6.8,3.4c-2.1,2.5-3.3,5.9-3.3,10.3c0,6.7,3.7,12,9.6,12
	H874.4z M874.4,107.5h-21l2.3-4h6.1c-1.6-1.8-2.4-3.9-2.4-6.4c0-5,3.8-9.1,8.7-9.1c2.4,0,4.5,1,6,3.1l-1.9,2.9
	c-1.1-1.5-2.5-2.2-4-2.2c-2.8,0-4.1,2-4.1,6s1.9,5.8,5.6,5.8h4.6V107.5z M895.4,149.5h-15.4c0,0-12.3,21.5-25,22.6
	c-0.6-1.3-1.6-3.3-2.9-6.2c5,0,9.4-1.4,13.2-4.3c3.5-2.8,6.1-6.5,7.6-11h-9c-4.6-0.2-8.3-1.9-11.3-5.5c-2.9-3.5-4.1-7.8-4.1-12.8
	c0.1-6.5,2.3-11.5,6.2-14.9c3.1-2.7,6.7-4,10.7-4c10.5,0,16,15.9,16,15.9v14.2h14V149.5L895.4,149.5z"/>
<path class="st2" d="M930.2,140.6c0-4.1-1-7.5-3.1-10.1c-1.9-2.1-4.2-3.1-6.9-3.1s-5.1,1-6.8,3.1c-1.9,2.4-2.8,5.7-2.8,10.1
	s1.1,7.5,3.2,10c1.9,2.1,4.2,3.2,6.9,3.2s5-1.1,6.7-3.2C929.3,148.1,930.2,144.8,930.2,140.6 M947.5,150.5h-12.2
	c-2.7,5.7-7.6,8.5-14.9,8.5s-12-2.8-15.1-8.5h-13v-6h10.8c-0.1-1-0.2-2.1-0.2-3.1c0-10.9,6.2-17.5,16.7-17.5c5.3,0,9.6,1.8,12.8,5.4
	c3,3.4,4.5,7.4,4.5,12.1c0,1,0,2.1-0.1,3.1h10.3L947.5,150.5L947.5,150.5z"/>
<path class="st2" d="M966,137.5c0,8-4.8,13.1-13.7,13.1h-6.8v-6h6.5c4,0,6.9-2.3,6.9-6.9c0-6.4-0.1-15.1-0.2-26
	c-0.1-12.7-0.2-21.4-0.2-26.1h7.1c0,4.6,0.1,13.3,0.2,26C965.9,122.4,966,131.1,966,137.5"/>
<polygon class="st2" points="985.9,150.5 979.4,150.5 979,85.5 985.4,85.5 "/>
<path class="st2" d="M36.4,114.5h-7v-8h7V114.5z M59.8,144.1c0,7.8-2.6,14.5-7.8,20c-5.1,5.5-11.4,8.3-18.8,8.3s-13.6-2.8-18.8-8.3
	c-5.2-5.5-7.8-12.2-7.8-20.1c-0.1-5.2-0.3-12.1-0.5-21.4h6.9c0,2,0.1,8.9,0.3,21.6c0,5.9,1.9,11,5.8,15.1c3.9,4.1,8.5,6.2,14.1,6.2
	s10.1-2.1,14.1-6.3c3.9-4.2,5.8-9.2,5.2-15.2v-20.3h7v20.5L59.8,144.1z"/>
<path class="st2" d="M92.5,150.5h-8.9c-3,0-5.5-1-7.5-2.9c-2.3-2.1-3.6-5.1-3.6-8.9l-0.3-53.1h7.3l0.3,53.1c0,3.5,1.7,5.4,4.9,5.9
	h7.8L92.5,150.5L92.5,150.5z"/>
<path class="st2" d="M128.3,140.8c0-4.1-1-7.5-3.1-10c-1.9-2.1-4.2-3.1-6.9-3.1s-5.1,1-6.8,3.1c-1.9,2.4-2.8,5.7-2.8,10
	s1.1,7.5,3.2,9.9c1.9,2.1,4.2,3.2,6.9,3.2s5-1.1,6.7-3.2C127.4,148.3,128.3,145,128.3,140.8 M195.9,150.5h-62.5
	c-2.7,5.7-7.6,8.5-14.9,8.5s-11.9-2.8-15-8.5h-13v-6h10.8c-0.1-1-0.2-2.1-0.2-3.1c0-10.9,6.2-17.5,16.7-17.5c5.3,0,9.6,1.8,12.9,5.4
	c3,3.4,4.5,7.4,4.5,12.1c0,1,0,2.1-0.1,3.1h60.6L195.9,150.5L195.9,150.5z"/>
<path class="st2" d="M246.4,105.5h-7v-8h7V105.5z M260.4,144.6c-0.1-4.5-0.7-8.4-1.7-11.8c-2.4-7.9-6.6-12-12.7-12.5
	c-11.9-0.7-21.5,6.9-28.6,23.1v1.1L260.4,144.6L260.4,144.6z M285.4,150.5h-142v-6h68v-21h6v8.7c3.2-6.5,8-11.5,14-14.8
	c5.3-2.9,10.1-4.2,14.7-3.7c7.7,0.8,13.4,4.3,16.9,10.5c2.5,4.5,4.7,20.3,4.7,20.3h17.7L285.4,150.5L285.4,150.5z"/>
<path class="st2" d="M304.2,137.5c0,8-4.8,13-13.7,13h-6.1v-6h6.5c4,0,6.9-2.3,6.9-6.9c0-6.4-0.1-15.1-0.2-26
	c-0.1-12.6-0.2-21.4-0.2-26.1h6.4c0,4.6,0.1,13.3,0.2,26C304.1,122.4,304.2,131.1,304.2,137.5"/>
</svg>
